<?xml version="1.0" encoding="UTF-8"?>
<svg version="1.1" xmlns="http://www.w3.org/2000/svg" width="347" height="350">
<path d="M0 0 C3.52804186 3.12584296 6.9764334 6.32976486 10.37646484 9.59472656 C10.93116455 10.12388672 11.48586426 10.65304688 12.05737305 11.19824219 C16.39367661 15.41780142 20.16982775 19.89466527 23.81396484 24.71972656 C24.66027466 25.8372229 24.66027466 25.8372229 25.52368164 26.97729492 C52.96156058 63.64367117 65.20885429 109.44820849 59.18896484 154.90722656 C54.29652592 188.11731471 40.49033268 220.67735159 17.45458984 245.36425781 C15.54619593 247.41255278 13.74021758 249.51508253 11.93896484 251.65722656 C-15.59794171 283.02044587 -59.37912647 301.44205907 -100.48535156 304.14086914 C-146.64057005 306.67393753 -191.63719885 292.30832572 -226.41650391 261.51269531 C-227.48829557 260.54310464 -228.5572451 259.57036428 -229.62353516 258.59472656 C-230.46198975 257.83216553 -230.46198975 257.83216553 -231.31738281 257.05419922 C-246.02277877 243.50135473 -257.58255702 227.39243301 -266.62353516 209.59472656 C-266.93871094 208.98209961 -267.25388672 208.36947266 -267.57861328 207.73828125 C-277.8237545 187.60091077 -284.68212212 164.39938504 -284.82666016 141.70410156 C-284.83371979 140.96621902 -284.84077942 140.22833649 -284.84805298 139.46809387 C-285.07621441 108.60247149 -285.07621441 108.60247149 -281.62353516 94.59472656 C-281.43017578 93.78148926 -281.23681641 92.96825195 -281.03759766 92.13037109 C-275.14860188 67.98821478 -264.76132279 45.32165402 -249.62353516 25.59472656 C-249.04216797 24.78648438 -248.46080078 23.97824219 -247.86181641 23.14550781 C-247.32943359 22.406875 -246.79705078 21.66824219 -246.24853516 20.90722656 C-245.78705078 20.26398438 -245.32556641 19.62074219 -244.85009766 18.95800781 C-244.44533203 18.508125 -244.04056641 18.05824219 -243.62353516 17.59472656 C-242.96353516 17.59472656 -242.30353516 17.59472656 -241.62353516 17.59472656 C-241.39794922 17.046875 -241.17236328 16.49902344 -240.93994141 15.93457031 C-226.7653809 -9.25997492 -187.82265605 -27.06563357 -161.25195312 -34.71289062 C-104.71151904 -49.60687828 -44.77944441 -38.75947098 0 0 Z " fill="#02913D" transform="translate(286.62353515625,44.4052734375)"/>
<path d="M0 0 C-2.16101498 8.08199313 -4.48342484 16.10850865 -6.875 24.125 C-7.5925492 26.5390324 -8.3099975 28.95309479 -9.02734375 31.3671875 C-9.54143799 33.09533691 -9.54143799 33.09533691 -10.06591797 34.85839844 C-12.97060944 44.62775804 -15.83042844 54.40968833 -18.66633606 64.19921875 C-19.25667449 66.23699353 -19.84705992 68.27475467 -20.4375 70.3125 C-20.63362885 70.9893988 -20.82975769 71.66629761 -21.03182983 72.3637085 C-24.07866014 82.87438556 -27.1902244 93.36407495 -30.35009766 103.84130859 C-33.82303972 115.37690355 -37.13469802 126.95218553 -40.32592773 138.5690918 C-42.09217679 144.94493409 -44.0014642 151.26668603 -45.991745 157.57545471 C-48.70154552 166.18610275 -51.25022629 174.84456629 -53.8125 183.5 C-54.31955508 185.20966697 -54.82671601 186.91930255 -55.33398438 188.62890625 C-56.55720446 192.75224501 -57.77901147 196.87599992 -59 201 C-59.66 201 -60.32 201 -61 201 C-61.28721924 200.16339844 -61.57443848 199.32679688 -61.87036133 198.46484375 C-62.94856949 195.32602619 -64.02778772 192.18755958 -65.10766602 189.04931641 C-65.57258213 187.69756517 -66.037109 186.34567998 -66.5012207 184.99365234 C-67.17293699 183.03707079 -67.84610691 181.08099424 -68.51953125 179.125 C-68.92276611 177.95195312 -69.32600098 176.77890625 -69.74145508 175.5703125 C-70.86937964 172.37055134 -72.04686087 169.19620789 -73.24491882 166.02246094 C-74.47858711 162.71811963 -75.64503995 159.39069148 -76.8125 156.0625 C-77.06749268 155.33812744 -77.32248535 154.61375488 -77.58520508 153.86743164 C-78.66185291 150.80885542 -79.73660497 147.74961402 -80.81152344 144.69042969 C-81.60285223 142.43921917 -82.39515738 140.18835386 -83.1875 137.9375 C-83.42509033 137.26017822 -83.66268066 136.58285645 -83.9074707 135.88500977 C-85.07208516 132.57691811 -86.26238565 129.28153506 -87.5 126 C-88.99351779 122.03993686 -90.41161721 118.0561323 -91.8125 114.0625 C-92.06749268 113.33812744 -92.32248535 112.61375488 -92.58520508 111.86743164 C-93.66185291 108.80885542 -94.73660497 105.74961402 -95.81152344 102.69042969 C-96.60285223 100.43921917 -97.39515738 98.18835386 -98.1875 95.9375 C-98.42509033 95.26017822 -98.66268066 94.58285645 -98.9074707 93.88500977 C-100.07208516 90.57691811 -101.26238565 87.28153506 -102.5 84 C-103.99351779 80.03993686 -105.41161721 76.0561323 -106.8125 72.0625 C-107.06749268 71.33812744 -107.32248535 70.61375488 -107.58520508 69.86743164 C-108.66185291 66.80885542 -109.73660497 63.74961402 -110.81152344 60.69042969 C-111.60285223 58.43921917 -112.39515738 56.18835386 -113.1875 53.9375 C-113.42509033 53.26017822 -113.66268066 52.58285645 -113.9074707 51.88500977 C-115.54508892 47.2333492 -117.25566409 42.61259815 -119 38 C-120.81655526 33.17742406 -122.6207626 28.35053932 -124.40820312 23.51708984 C-124.97260762 21.9970608 -125.54101549 20.47851267 -126.11328125 18.96142578 C-126.9451642 16.75399209 -127.76297159 14.54178209 -128.578125 12.328125 C-128.83636047 11.65203186 -129.09459595 10.97593872 -129.36065674 10.27935791 C-130.31645366 7.64968523 -131.02923809 5.46572796 -130.85253906 2.65112305 C-129.24930121 -0.45388772 -125.60887906 -1.25335934 -122.5 -2.4375 C-121.73534424 -2.7375293 -120.97068848 -3.03755859 -120.18286133 -3.34667969 C-80.39450187 -18.63075996 -38.88132523 -17.48785243 0 0 Z " fill="#FDF100" transform="translate(233,35)"/>
<path d="M0 0 C34.98 0 69.96 0 106 0 C106 22.11 106 44.22 106 67 C71.52678719 80.258928 34.59098606 79.35392359 0 67 C0 44.89 0 22.78 0 0 Z " fill="#FDF100" transform="translate(116,245)"/>
<path d="M0 0 C2.41649436 2.21259666 4.80097825 4.45248108 7.16430664 6.72192383 C7.71900635 7.25108398 8.27370605 7.78024414 8.84521484 8.32543945 C13.18151841 12.54499868 16.95766955 17.02186254 20.60180664 21.84692383 C21.44811646 22.96442017 21.44811646 22.96442017 22.31152344 24.10449219 C49.74940238 60.77086844 61.99669608 106.57540576 55.97680664 152.03442383 C51.08436771 185.24451198 37.27817448 217.80454885 14.24243164 242.49145508 C12.33403773 244.53975005 10.52805938 246.6422798 8.72680664 248.78442383 C-18.81009991 280.14764314 -62.59128467 298.56925633 -103.69750977 301.26806641 C-149.85272825 303.8011348 -194.84935706 289.43552299 -229.62866211 258.63989258 C-230.70045377 257.6703019 -231.7694033 256.69756155 -232.83569336 255.72192383 C-233.67414795 254.95936279 -233.67414795 254.95936279 -234.52954102 254.18139648 C-249.23493697 240.628552 -260.79471522 224.51963028 -269.83569336 206.72192383 C-270.15086914 206.10929688 -270.46604492 205.49666992 -270.79077148 204.86547852 C-279.04791966 188.63561419 -283.88780785 171.65380496 -286.83569336 153.72192383 C-287.01438965 152.65216309 -287.19308594 151.58240234 -287.37719727 150.48022461 C-287.88267602 146.33680614 -287.96197607 142.33047769 -287.93334961 138.16333008 C-287.93193466 137.37417709 -287.93051971 136.58502411 -287.92906189 135.7719574 C-287.92350891 133.27607268 -287.91096544 130.78028098 -287.89819336 128.28442383 C-287.89317227 126.58195117 -287.88861043 124.8794771 -287.88452148 123.17700195 C-287.87355494 119.02527395 -287.85632327 114.87361461 -287.83569336 110.72192383 C-287.50569336 110.72192383 -287.17569336 110.72192383 -286.83569336 110.72192383 C-286.81381958 111.73838989 -286.81381958 111.73838989 -286.79150391 112.77539062 C-285.62395313 161.7093829 -272.65452868 205.12174017 -237.83569336 240.72192383 C-237.1125293 241.50696289 -236.38936523 242.29200195 -235.64428711 243.10083008 C-209.79352953 270.52127312 -169.12718223 287.76744539 -131.73370361 289.01052856 C-128.12145481 289.0914512 -124.5112414 289.10800302 -120.89819336 289.09692383 C-120.13290314 289.095383 -119.36761292 289.09384216 -118.57913208 289.09225464 C-73.48338196 288.87720883 -33.49052096 270.37053733 -1.21069336 239.40942383 C8.8419832 229.04432405 16.98638137 217.20925447 24.16430664 204.72192383 C24.52121582 204.1015625 24.878125 203.48120117 25.24584961 202.84204102 C36.69514109 182.50328085 44.14721037 158.04586121 44.40258789 134.65551758 C44.41247238 133.90788147 44.42235687 133.16024536 44.43254089 132.38995361 C44.89803825 87.99971174 33.52978043 48.8981237 4.16430664 14.72192383 C3.40891602 13.8427832 2.65352539 12.96364258 1.87524414 12.05786133 C-2.71184056 6.84024952 -7.43235754 2.08722601 -12.83569336 -2.27807617 C-13.8037793 -3.06053711 -14.77186523 -3.84299805 -15.76928711 -4.64916992 C-38.09658349 -22.39502107 -63.80156571 -34.1621647 -91.83569336 -39.27807617 C-93.57399414 -39.61645508 -93.57399414 -39.61645508 -95.34741211 -39.96166992 C-112.7700349 -42.8422632 -131.30202898 -41.92277501 -148.83569336 -40.27807617 C-148.83569336 -40.60807617 -148.83569336 -40.93807617 -148.83569336 -41.27807617 C-95.28706379 -50.90374606 -40.64262377 -36.69203402 0 0 Z " fill="#000100" transform="translate(289.835693359375,47.278076171875)"/>
<path d="M0 0 C29.47810712 11.00165069 51.3022932 42.12344679 64.51953125 69.1015625 C80.5688708 105.27626434 80.92491528 145.34096494 67.7890625 182.41796875 C66.90600177 184.63814626 65.99862937 186.82979426 65 189 C56.59101673 180.59101673 53.80510085 161.25784973 50.23486328 150.09082031 C46.90576736 139.69495337 43.45878697 129.38280603 39.62321472 119.16236877 C36.07963679 109.65018378 33.02707418 99.97949129 29.9375 90.3125 C26.58809735 79.83514119 23.22982091 69.40025558 19.28384399 59.13066101 C16.13122733 50.84707473 13.45161871 42.40368993 10.73071289 33.97070312 C9.80664216 31.10684552 8.87740485 28.24470428 7.94726562 25.3828125 C7.34605765 23.52874196 6.74513597 21.67457855 6.14453125 19.8203125 C5.87260452 18.98154572 5.6006778 18.14277893 5.32051086 17.27859497 C3.47051496 11.54126003 1.71209318 5.77993619 0 0 Z " fill="#FBF100" transform="translate(243,41)"/>
<path d="M0 0 C-2.02350749 7.62147608 -4.23963249 15.1633409 -6.59765625 22.6875 C-7.31446301 24.98754575 -8.03125941 27.28759472 -8.74804688 29.58764648 C-9.12437256 30.79266815 -9.50069824 31.99768982 -9.88842773 33.23922729 C-11.92191144 39.75285534 -13.94789774 46.26881145 -15.97265625 52.78515625 C-16.18151081 53.45720659 -16.39036537 54.12925694 -16.60554886 54.82167244 C-21.11800095 69.34575732 -25.56731737 83.88887886 -30 98.4375 C-30.73704052 100.85409139 -31.4741011 103.27067667 -32.21118164 105.68725586 C-35.53537038 116.59173609 -38.85136281 127.49860804 -42.14607239 138.41202831 C-43.82145894 143.96150134 -45.5006493 149.50981413 -47.18229675 155.05739307 C-48.38289343 159.01941568 -49.57778852 162.98309903 -50.76841736 166.94812775 C-51.67392684 169.95782422 -52.58762088 172.96503645 -53.5 175.97265625 C-53.82621338 177.06542877 -54.15242676 178.15820129 -54.48852539 179.28408813 C-54.79137451 180.2770993 -55.09422363 181.27011047 -55.40625 182.29321289 C-55.66728516 183.15894424 -55.92832031 184.0246756 -56.19726562 184.91664124 C-57 187 -57 187 -59 189 C-60.1334376 186.19065066 -61.25681938 183.37791905 -62.375 180.5625 C-62.85066406 179.3878418 -62.85066406 179.3878418 -63.3359375 178.18945312 C-65.17389588 173.53712099 -66.56075153 169.00973288 -67.55371094 164.10766602 C-67.96550991 162.16288453 -68.50480415 160.246273 -69.0546875 158.3359375 C-78.55396317 124.8137002 -70.41075306 84.7993001 -53.79492188 54.82617188 C-46.5758502 42.36508258 -37.78837844 31.53995411 -28 21 C-27.44957031 20.39542969 -26.89914063 19.79085937 -26.33203125 19.16796875 C-20.93121471 13.47377452 -7.99667282 0 0 0 Z " fill="#FBF000" transform="translate(91,44)"/>
<path d="M0 0 C14.85 0 29.7 0 45 0 C43.26245554 4.34386116 41.3275061 7.70669506 38.625 11.4375 C38.18655762 12.04440674 37.74811523 12.65131348 37.29638672 13.27661133 C27.47340584 26.66891912 16.17768434 40.06189465 2 49 C1.34 49 0.68 49 0 49 C0 32.83 0 16.66 0 0 Z " fill="#F5EE02" transform="translate(255,245)"/>
<path d="M0 0 C14.52 0 29.04 0 44 0 C44 15.84 44 31.68 44 48 C39.25108479 46.10043391 36.14180439 43.91600848 32.375 40.625 C31.76108398 40.09116699 31.14716797 39.55733398 30.51464844 39.00732422 C20.10573223 29.80566944 11.77729494 19.45106172 4 8 C3.61312012 7.44666992 3.22624023 6.89333984 2.82763672 6.32324219 C0 2.22633282 0 2.22633282 0 0 Z " fill="#F4EE02" transform="translate(39,245)"/>
<path d="M0 0 C0.66 0.33 1.32 0.66 2 1 C-5.92 8.92 -13.84 16.84 -22 25 C-22.33 24.34 -22.66 23.68 -23 23 C-22.67 22.34 -22.34 21.68 -22 21 C-21.34 21 -20.68 21 -20 21 C-19.78859375 20.46246094 -19.5771875 19.92492187 -19.359375 19.37109375 C-17.48839527 16.10763198 -14.91871758 13.66938144 -12.25 11.0625 C-11.73695312 10.55009766 -11.22390625 10.03769531 -10.6953125 9.50976562 C-7.28114141 6.13419698 -3.72532577 3.02822139 0 0 Z " fill="#209349" transform="translate(65,41)"/>
<path d="M0 0 C0.66 0 1.32 0 2 0 C2 0.99 2 1.98 2 3 C1.34 3 0.68 3 0 3 C0 2.01 0 1.02 0 0 Z " fill="#FFFFF6" transform="translate(308,52)"/>
</svg>
