<?xml version="1.0" encoding="UTF-8"?>
<svg version="1.1" xmlns="http://www.w3.org/2000/svg" width="512" height="512">
<path d="M0 0 C1.73715655 -0.0057093 3.47430935 -0.01267572 5.2114563 -0.02079773 C9.90991367 -0.03868333 14.6081838 -0.03756932 19.30666494 -0.03185534 C23.23788255 -0.02875654 27.16906454 -0.0348637 31.10027707 -0.04089409 C40.37938173 -0.05492289 49.65839429 -0.053392 58.9375 -0.04199219 C68.49025701 -0.03051506 78.04273314 -0.0445836 87.59545314 -0.07138866 C95.81571607 -0.09358587 104.03589109 -0.10017391 112.25618184 -0.09431225 C117.15757992 -0.09095079 122.05879804 -0.09330356 126.96017075 -0.11056328 C131.57158632 -0.12609434 136.1825877 -0.1220089 140.79398727 -0.10325813 C142.47933374 -0.09958912 144.16471132 -0.10263111 145.85002899 -0.11314392 C159.56225733 -0.19210101 170.53821742 1.59543405 180.81298828 11.40405273 C190.61027336 21.66695136 192.4811345 32.50451995 192.31298828 46.34155273 C192.32845703 47.64157227 192.34392578 48.9415918 192.35986328 50.28100586 C192.35470703 51.52688477 192.34955078 52.77276367 192.34423828 54.05639648 C192.33972656 55.18037842 192.33521484 56.30436035 192.33056641 57.46240234 C191.81298828 60.40405273 191.81298828 60.40405273 190.46728516 62.80078125 C187.81298828 64.40405273 187.81298828 64.40405273 176.81298828 64.40405273 C176.81298828 80.24405273 176.81298828 96.08405273 176.81298828 112.40405273 C180.44298828 112.40405273 184.07298828 112.40405273 187.81298828 112.40405273 C190.46728516 113.84155273 190.46728516 113.84155273 191.81298828 116.40405273 C192.36003618 119.41535421 192.37361981 122.34954358 192.34423828 125.40405273 C192.34806519 126.27674805 192.35189209 127.14944336 192.35583496 128.04858398 C192.35855318 129.89104366 192.35119823 131.73354198 192.33447266 133.57592773 C192.31306076 136.39451207 192.33427629 139.21054758 192.35986328 142.02905273 C192.35721999 143.82072502 192.35209498 145.61239572 192.34423828 147.40405273 C192.35233521 148.24581055 192.36043213 149.08756836 192.36877441 149.95483398 C192.3125656 153.46599917 192.11453472 155.82984529 190.46728516 158.96655273 C187.81298828 160.40405273 187.81298828 160.40405273 176.81298828 160.40405273 C176.81298828 176.24405273 176.81298828 192.08405273 176.81298828 208.40405273 C180.44298828 208.40405273 184.07298828 208.40405273 187.81298828 208.40405273 C190.46728516 210.00732422 190.46728516 210.00732422 191.81298828 212.40405273 C192.33056641 215.34570312 192.33056641 215.34570312 192.34423828 218.75170898 C192.34939453 219.99758789 192.35455078 221.2434668 192.35986328 222.52709961 C192.34439453 223.82711914 192.32892578 225.12713867 192.31298828 226.46655273 C192.32845703 227.73950195 192.34392578 229.01245117 192.35986328 230.32397461 C192.30895499 242.71378088 189.46151668 252.34450517 180.81298828 261.40405273 C170.05912416 271.67002888 158.41270857 272.99100177 144.18798828 273.02905273 C126.32441765 272.64667547 126.32441765 272.64667547 110.81298828 280.40405273 C106.67416604 285.34122647 105.4983755 290.41442418 104.68017578 296.72045898 C104.51372559 297.97415283 104.34727539 299.22784668 104.17578125 300.51953125 C103.99619873 301.94736938 103.99619873 301.94736938 103.81298828 303.40405273 C104.38982927 303.40128736 104.96667027 303.39852198 105.56099129 303.3956728 C119.60803646 303.32936975 133.65505812 303.27975117 147.70222664 303.24861622 C154.49538931 303.2331587 161.28844742 303.21209067 168.08154297 303.17773438 C174.63674401 303.14459709 181.1918772 303.12720109 187.74715805 303.11942101 C190.24861232 303.11387623 192.75006061 303.10304876 195.25146866 303.08686256 C198.7540397 303.06509857 202.25616132 303.06208546 205.75878906 303.06347656 C207.31138176 303.04729782 207.31138176 303.04729782 208.89533997 303.03079224 C214.26836694 303.05389675 218.20825463 303.2902744 222.81298828 306.40405273 C224.1086614 308.99539897 223.94770221 310.87779014 223.9601593 313.7807312 C223.97089226 315.49267166 223.97089226 315.49267166 223.98184204 317.23919678 C223.98453094 318.49742249 223.98721985 319.75564819 223.98999023 321.05200195 C223.9962542 322.38569313 224.00290094 323.71938256 224.00990295 325.05307007 C224.02731701 328.6811976 224.03786548 332.30931195 224.04610848 335.93747091 C224.05125706 338.20325163 224.05733281 340.46902824 224.06361961 342.73480606 C224.08267156 349.82120232 224.09690352 356.90758814 224.10523158 363.99400508 C224.11500955 372.17936025 224.14134338 380.3644454 224.18173248 388.54970539 C224.21186707 394.87332513 224.22669785 401.19686735 224.2300126 407.52055752 C224.23236585 411.29903265 224.24136167 415.07721929 224.26647377 418.85561752 C224.28971391 422.40975684 224.29400453 425.96341692 224.28371239 429.51761246 C224.28297912 431.44440046 224.30209832 433.37116391 224.32177734 435.29785156 C224.31136162 437.0182515 224.31136162 437.0182515 224.30073547 438.77340698 C224.30312383 439.77003294 224.30551218 440.7666589 224.30797291 441.79348564 C223.67631342 445.12488097 222.42181628 446.30992167 219.81298828 448.40405273 C217.072096 449.13210225 214.58277622 448.97848514 211.81298828 448.40405273 C208.84440671 446.19664593 207.98433037 444.91807901 206.81298828 441.40405273 C206.72313354 439.75454805 206.6910219 438.1016106 206.69273376 436.44966125 C206.69067177 434.9163063 206.69067177 434.9163063 206.68856812 433.35197449 C206.69216339 432.23132095 206.69575867 431.11066742 206.69946289 429.95605469 C206.69931686 428.77543457 206.69917084 427.59481445 206.69902039 426.37841797 C206.69959804 423.14107832 206.70461646 419.90378179 206.71159434 416.66645074 C206.71784181 413.28318484 206.71843279 409.89991811 206.71961975 406.51664734 C206.72272895 400.10999058 206.73093681 393.70335086 206.74096924 387.29670161 C206.75214312 380.00294005 206.75764405 372.70917767 206.76266468 365.41540968 C206.77311976 350.41161297 206.79146015 335.40783841 206.81298828 320.40405273 C191.63298828 320.40405273 176.45298828 320.40405273 160.81298828 320.40405273 C160.84779297 325.60413086 160.88259766 330.80420898 160.91845703 336.16186523 C160.93379037 339.46135567 160.94823255 342.76080201 160.95947266 346.06030273 C160.97738798 351.29444532 160.99855448 356.52843007 161.03930664 361.76245117 C161.07196503 365.98348594 161.08985495 370.20435139 161.09762001 374.42550278 C161.10315191 376.03381896 161.11395443 377.64212616 161.13017845 379.25037003 C161.15203935 381.50769132 161.15495167 383.76431795 161.15356445 386.02172852 C161.16355721 387.94699875 161.16355721 387.94699875 161.17375183 389.91116333 C160.77921681 393.73102594 159.81970334 396.14931025 157.81298828 399.40405273 C154.93070456 400.84519459 152.4436053 400.54004566 149.22146606 400.55122375 C148.19408099 400.55673879 148.19408099 400.55673879 147.14594066 400.56236523 C144.83979931 400.57342081 142.53370298 400.57724904 140.22753906 400.58105469 C138.5785813 400.58731784 136.92962495 400.5939645 135.28067017 400.60096741 C130.79306475 400.61838886 126.30547 400.6289319 121.81783915 400.63717294 C119.01602778 400.64231979 116.21421975 400.64839561 113.41241074 400.65468407 C104.65159061 400.67373781 95.89077893 400.68796956 87.12994206 400.69629604 C77.00667281 400.70607555 66.88362181 400.73241286 56.7604295 400.77279693 C48.94213043 400.80291943 41.12389406 400.81776116 33.30553806 400.82107705 C28.63282465 400.82343162 23.96034435 400.83244487 19.28769302 400.85753822 C14.89310618 400.88075703 10.49890695 400.88507733 6.10427475 400.87477684 C4.49015771 400.87427988 2.87602199 400.88064727 1.26196289 400.89433289 C-0.9396674 400.91195813 -3.13989235 400.90499372 -5.34152222 400.89179993 C-7.19042966 400.89538246 -7.19042966 400.89538246 -9.07668877 400.89903736 C-12.77161625 400.3110173 -13.92289282 399.3171705 -16.18701172 396.40405273 C-17.63459992 392.8800331 -17.30711408 389.10260303 -17.30053711 385.34057617 C-17.30068314 384.63773499 -17.30082916 383.9348938 -17.30097961 383.21075439 C-17.30028471 380.8949471 -17.2925121 378.57922092 -17.28466797 376.26342773 C-17.28280229 374.65488733 -17.28137909 373.04634635 -17.28038025 371.43780518 C-17.27656688 367.20949732 -17.26674667 362.98122395 -17.25567627 358.75292969 C-17.24363565 353.67679558 -17.23905429 348.60064992 -17.23322296 343.52450562 C-17.22353428 335.81766402 -17.20436948 328.11089806 -17.18701172 320.40405273 C-32.36701172 320.40405273 -47.54701172 320.40405273 -63.18701172 320.40405273 C-63.17130127 324.04331787 -63.15559082 327.68258301 -63.1394043 331.43212891 C-63.08973094 343.44616873 -63.05641897 355.46020134 -63.0315752 367.47431469 C-63.01610947 374.75962243 -62.99502565 382.04483285 -62.96069336 389.33007812 C-62.9307819 395.68026031 -62.91143458 402.03037201 -62.90474623 408.38062268 C-62.9008369 411.74273582 -62.8916558 415.10464731 -62.86982155 418.46669579 C-62.84809605 422.22092094 -62.84504283 425.97472617 -62.84643555 429.72900391 C-62.83564972 430.84246689 -62.82486389 431.95592987 -62.81375122 433.10313416 C-62.81993721 434.6406131 -62.81993721 434.6406131 -62.82624817 436.20915222 C-62.82348279 437.09683887 -62.82071741 437.98452551 -62.81786823 438.89911175 C-63.27666762 442.01244145 -64.34994777 443.8659424 -66.18701172 446.40405273 C-69.69954318 448.74574037 -71.05170527 448.90028951 -75.18701172 448.40405273 C-79.94563934 445.40781695 -79.94563934 445.40781695 -80.81342411 441.79907227 C-80.81401042 440.80504395 -80.81459673 439.81101562 -80.81520081 438.78686523 C-80.82785477 437.64282227 -80.84050873 436.4987793 -80.85354614 435.32006836 C-80.84185394 434.0690332 -80.83016174 432.81799805 -80.81811523 431.52905273 C-80.82325464 430.19505868 -80.83053609 428.86107141 -80.83979797 427.52709961 C-80.85831828 423.90709304 -80.84537033 420.28782264 -80.82570767 416.66784668 C-80.80932459 412.87938578 -80.81813358 409.09097164 -80.82322693 405.30249023 C-80.8277483 398.94039141 -80.81187564 392.57858655 -80.78393555 386.21655273 C-80.75188319 378.8614386 -80.75189907 371.50685466 -80.76915032 364.15170288 C-80.78501492 357.07592115 -80.77828236 350.00033378 -80.7612133 342.92456055 C-80.75434119 339.9134402 -80.75537681 336.90247558 -80.76275826 333.89135742 C-80.7704204 330.34530499 -80.75829845 326.79985581 -80.73090935 323.25390625 C-80.72073903 321.33197427 -80.73020884 319.40996985 -80.74023438 317.48803711 C-80.72750992 316.34399414 -80.71478546 315.19995117 -80.70167542 314.02124023 C-80.69886849 313.02721191 -80.69606157 312.03318359 -80.69316959 311.0090332 C-80.04361338 307.66604216 -78.82278816 306.49697047 -76.18701172 304.40405273 C-73.30882711 303.44465787 -71.52384477 303.28048244 -68.53633118 303.28379822 C-67.10394608 303.28173622 -67.10394608 303.28173622 -65.6426239 303.27963257 C-64.59677628 303.28322784 -63.55092865 303.28682312 -62.47338867 303.29052734 C-61.37079712 303.29038132 -60.26820557 303.29023529 -59.13220215 303.29008484 C-55.47987923 303.29078271 -51.82760701 303.29856929 -48.17529297 303.30639648 C-45.64609302 303.30826111 -43.1168927 303.3096848 -40.58769226 303.3106842 C-34.60602509 303.31411505 -28.62437977 303.3220003 -22.64272135 303.33203369 C-15.8326267 303.34320886 -9.02253118 303.34870882 -2.21242964 303.35372913 C11.79605311 303.36418327 25.8045197 303.38177398 39.81298828 303.40405273 C39.5424196 301.18527618 39.25856501 298.96811754 38.96923828 296.75170898 C38.81261719 295.51686768 38.65599609 294.28202637 38.49462891 293.00976562 C37.28772376 286.62553135 34.79932179 281.49836455 29.40673828 277.71655273 C22.50856222 274.05968832 16.15745398 273.29612749 8.39501953 273.22827148 C6.96076028 273.20505999 5.52651546 273.18094212 4.09228516 273.15600586 C1.86554436 273.12109478 -0.36066681 273.09163674 -2.58764648 273.078125 C-16.12443723 272.98026143 -27.058994 271.07257627 -37.18701172 261.40405273 C-47.30597172 250.80419166 -49.34162292 238.42044257 -49.43701172 224.27905273 C-49.45763672 223.5069043 -49.47826172 222.73475586 -49.49951172 221.93920898 C-49.53303929 217.01903862 -48.9213727 213.66487737 -46.18701172 209.40405273 C-44.18701172 208.40405273 -44.18701172 208.40405273 -33.18701172 208.40405273 C-33.18701172 192.56405273 -33.18701172 176.72405273 -33.18701172 160.40405273 C-36.81701172 160.40405273 -40.44701172 160.40405273 -44.18701172 160.40405273 C-47.35321267 158.21786636 -47.97665042 157.03513662 -49.18701172 153.40405273 C-49.30742548 150.88831731 -49.37506055 148.40107989 -49.39013672 145.88452148 C-49.39583679 145.14833084 -49.40153687 144.4121402 -49.40740967 143.65364075 C-49.41684928 142.09609408 -49.42338953 140.53852753 -49.42724609 138.98095703 C-49.43693403 136.61056187 -49.46795847 134.24104071 -49.49951172 131.87084961 C-49.50604413 130.35457869 -49.51129367 128.8383016 -49.51513672 127.32202148 C-49.52748352 126.61869186 -49.53983032 125.91536224 -49.55255127 125.1907196 C-49.53171141 120.53423485 -48.6544434 117.35261923 -46.18701172 113.40405273 C-44.18701172 112.40405273 -44.18701172 112.40405273 -33.18701172 112.40405273 C-33.18701172 96.56405273 -33.18701172 80.72405273 -33.18701172 64.40405273 C-36.81701172 64.40405273 -40.44701172 64.40405273 -44.18701172 64.40405273 C-46.78856069 62.66968675 -47.74260926 61.67377405 -48.76123047 58.76342773 C-51.20439489 45.22515883 -49.71398988 29.02799369 -42.18701172 17.40405273 C-30.89111808 2.26223386 -17.91964458 -0.05324467 0 0 Z M-26.18701172 24.40405273 C-32.00100256 32.01761217 -32.18701172 38.95921572 -32.18701172 48.40405273 C36.45298828 48.40405273 105.09298828 48.40405273 175.81298828 48.40405273 C175.81298828 38.04468802 175.00694039 30.30209377 167.81298828 22.40405273 C160.7778509 17.03176601 153.65633473 16.28288808 144.95755005 16.27033997 C144.30455079 16.26807441 143.65155153 16.26580885 142.97876441 16.26347464 C140.81036876 16.25719016 138.64203651 16.2579604 136.47363281 16.25878906 C134.91086751 16.25579413 133.34810295 16.25239083 131.78533936 16.24861145 C127.55387559 16.23980195 123.32243207 16.23743464 119.09096003 16.23679566 C116.44402896 16.23608351 113.79710299 16.23394607 111.15017319 16.23129845 C101.90675277 16.2220556 92.66334676 16.21796229 83.41992188 16.21875 C74.81814089 16.21935073 66.21642263 16.20879714 57.61465752 16.19300634 C50.2165571 16.1799115 42.81847713 16.17456691 35.42036521 16.17520541 C31.00753755 16.17545979 26.59476568 16.17264136 22.18194962 16.16202736 C18.0303097 16.15231345 13.87877856 16.15228968 9.7271347 16.15954399 C8.20865341 16.1605857 6.69016523 16.15825167 5.17169571 16.15218353 C-6.46143794 16.1087274 -17.13685368 16.16069173 -26.18701172 24.40405273 Z M-16.18701172 64.40405273 C-16.18701172 80.24405273 -16.18701172 96.08405273 -16.18701172 112.40405273 C41.89298828 112.40405273 99.97298828 112.40405273 159.81298828 112.40405273 C159.81298828 96.56405273 159.81298828 80.72405273 159.81298828 64.40405273 C101.73298828 64.40405273 43.65298828 64.40405273 -16.18701172 64.40405273 Z M-32.18701172 128.40405273 C-32.18701172 133.68405273 -32.18701172 138.96405273 -32.18701172 144.40405273 C36.45298828 144.40405273 105.09298828 144.40405273 175.81298828 144.40405273 C175.81298828 139.12405273 175.81298828 133.84405273 175.81298828 128.40405273 C107.17298828 128.40405273 38.53298828 128.40405273 -32.18701172 128.40405273 Z M-16.18701172 160.40405273 C-16.18701172 176.24405273 -16.18701172 192.08405273 -16.18701172 208.40405273 C41.89298828 208.40405273 99.97298828 208.40405273 159.81298828 208.40405273 C159.81298828 192.56405273 159.81298828 176.72405273 159.81298828 160.40405273 C101.73298828 160.40405273 43.65298828 160.40405273 -16.18701172 160.40405273 Z M-32.18701172 224.40405273 C-32.18701172 235.10249695 -31.39054509 242.35755269 -24.18701172 250.40405273 C-16.95156913 255.94245515 -9.60067491 256.50145743 -0.67138672 256.57983398 C0.75961745 256.60303985 2.19060707 256.6271575 3.62158203 256.65209961 C5.83733826 256.6870338 8.05255778 256.71648923 10.26855469 256.72998047 C23.63730357 256.82689868 34.92533764 258.62833776 44.81298828 268.40405273 C54.0040032 279.20438933 55.32200338 289.75580631 56.81298828 303.40405273 C66.71298828 303.40405273 76.61298828 303.40405273 86.81298828 303.40405273 C87.20486328 300.31030273 87.59673828 297.21655273 88.00048828 294.02905273 C89.76129236 281.68656015 93.63310346 271.82752057 103.72314453 263.90405273 C113.66509963 257.26290579 123.73345421 256.93977086 135.31298828 256.84155273 C153.89112484 257.03307004 153.89112484 257.03307004 169.81298828 248.40405273 C175.62697913 240.79049329 175.81298828 233.84888975 175.81298828 224.40405273 C107.17298828 224.40405273 38.53298828 224.40405273 -32.18701172 224.40405273 Z M-0.18701172 320.40405273 C-0.18701172 341.52405273 -0.18701172 362.64405273 -0.18701172 384.40405273 C47.33298828 384.40405273 94.85298828 384.40405273 143.81298828 384.40405273 C143.81298828 363.28405273 143.81298828 342.16405273 143.81298828 320.40405273 C96.29298828 320.40405273 48.77298828 320.40405273 -0.18701172 320.40405273 Z " fill="#2D7C31" transform="translate(184.18701171875,31.595947265625)"/>
<path d="M0 0 C0.80695313 -0.02384766 1.61390625 -0.04769531 2.4453125 -0.07226562 C6.63563995 -0.06189353 8.36567973 -0.02581247 11.53125 2.91015625 C13.33871944 6.17417685 13.61315882 7.88354711 13 11.5625 C11.53125 14.21484375 11.53125 14.21484375 9 16.5625 C5.98438477 17.28168952 3.08589647 17.21619662 0 17.125 C-1.21042969 17.14143555 -1.21042969 17.14143555 -2.4453125 17.15820312 C-6.25000857 17.1111153 -8.36660146 17.00920237 -11.53125 14.77734375 C-13.076306 12.44743218 -13.54316489 11.32505265 -13.5 8.5625 C-13.51546875 7.5725 -13.51546875 7.5725 -13.53125 6.5625 C-11.69043072 -0.36764316 -5.99211894 -0.08136264 0 0 Z " fill="#2E7C32" transform="translate(284,383.4375)"/>
<path d="M0 0 C0.80695313 -0.02384766 1.61390625 -0.04769531 2.4453125 -0.07226562 C6.63563995 -0.06189353 8.36567973 -0.02581247 11.53125 2.91015625 C13.33871944 6.17417685 13.61315882 7.88354711 13 11.5625 C11.53125 14.21484375 11.53125 14.21484375 9 16.5625 C5.98438477 17.28168952 3.08589647 17.21619662 0 17.125 C-1.21042969 17.14143555 -1.21042969 17.14143555 -2.4453125 17.15820312 C-6.25000857 17.1111153 -8.36660146 17.00920237 -11.53125 14.77734375 C-13.076306 12.44743218 -13.54316489 11.32505265 -13.5 8.5625 C-13.51546875 7.5725 -13.51546875 7.5725 -13.53125 6.5625 C-11.69043072 -0.36764316 -5.99211894 -0.08136264 0 0 Z " fill="#2E7C32" transform="translate(228,383.4375)"/>
</svg>
