<?xml version="1.0" encoding="UTF-8"?>
<svg version="1.1" xmlns="http://www.w3.org/2000/svg" width="512" height="512">
<path d="M0 0 C0.70774567 -0.00817749 1.41549133 -0.01635498 2.14468384 -0.02478027 C4.48756069 -0.04959459 6.83037691 -0.06614386 9.17333984 -0.08056641 C9.97576488 -0.08589008 10.77818993 -0.09121376 11.60493088 -0.09669876 C15.85575148 -0.12341861 20.1065429 -0.1427935 24.35742188 -0.15722656 C27.86485008 -0.17054118 31.37169311 -0.19834878 34.87890625 -0.23925781 C39.12293144 -0.28875562 43.36642774 -0.31336887 47.61072922 -0.32045364 C49.22217966 -0.32713897 50.83361956 -0.34228976 52.44490433 -0.36634445 C68.98328458 -0.59907274 68.98328458 -0.59907274 76.00927734 5.19287109 C78.16552734 7.54443359 78.16552734 7.54443359 79.50927734 9.81787109 C79.97333984 10.57326172 80.43740234 11.32865234 80.91552734 12.10693359 C83.11317848 16.29816827 83.14831329 20.00487687 83.12953186 24.61491394 C83.1308135 25.75806996 83.1308135 25.75806996 83.13212103 26.92432004 C83.13377198 29.48545906 83.12826072 32.046533 83.12280273 34.60766602 C83.12252075 36.44059752 83.12267881 38.27352913 83.12324524 40.10646057 C83.12353279 45.08960492 83.11764287 50.07272532 83.11067128 55.0558641 C83.10443072 60.26089975 83.10383339 65.46593592 83.10264587 70.67097473 C83.09953464 80.53068543 83.09132403 90.39038507 83.08129638 100.2500909 C83.07012882 111.47364555 83.06462317 122.69720073 83.05960095 133.92075956 C83.04914126 157.01146954 83.03154581 180.1021697 83.00927734 203.19287109 C83.95865362 203.18826213 84.9080299 203.18365316 85.88617516 203.17890453 C109.00583186 203.06781777 132.12545388 202.98570017 155.24532127 202.93381023 C166.4260139 202.90804848 177.60653004 202.87293659 188.78710938 202.81567383 C198.53416172 202.76577693 208.28108622 202.73356534 218.02826273 202.72242862 C223.18751457 202.71592055 228.3464007 202.70066682 233.50553513 202.66422081 C238.36633633 202.6301621 243.22662285 202.61983808 248.08753204 202.62733269 C249.86684851 202.62596255 251.64618305 202.61608906 253.42539597 202.59684372 C271.58720303 202.41010713 271.58720303 202.41010713 279.00927734 208.19287109 C284.35813017 213.97175976 286.12255308 218.2565316 286.20214844 226.18359375 C286.21032593 226.89133942 286.21850342 227.59908508 286.22692871 228.32827759 C286.25174302 230.67115444 286.2682923 233.01397066 286.28271484 235.35693359 C286.29070036 236.56057116 286.29070036 236.56057116 286.2988472 237.78852463 C286.32556704 242.03934523 286.34494194 246.29013665 286.359375 250.54101562 C286.37268962 254.04844383 286.40049722 257.55528686 286.44140625 261.0625 C286.49090405 265.30652519 286.51551731 269.55002149 286.52260208 273.79432297 C286.5292874 275.40577341 286.5444382 277.01721331 286.56849289 278.62849808 C286.80122118 295.16687833 286.80122118 295.16687833 281.00927734 302.19287109 C278.65771484 304.34912109 278.65771484 304.34912109 276.38427734 305.69287109 C275.25119141 306.38896484 275.25119141 306.38896484 274.09521484 307.09912109 C269.90398017 309.29677223 266.19727156 309.33190704 261.5872345 309.31312561 C260.82513048 309.31398004 260.06302647 309.31483446 259.2778284 309.31571478 C256.71668938 309.31736573 254.15561543 309.31185447 251.59448242 309.30639648 C249.76155092 309.3061145 247.9286193 309.30627256 246.09568787 309.30683899 C241.11254352 309.30712654 236.12942311 309.30123662 231.14628434 309.29426503 C225.94124869 309.28802447 220.73621252 309.28742714 215.53117371 309.28623962 C205.67146301 309.28312839 195.81176336 309.27491778 185.95205754 309.26489013 C174.72850288 309.25372257 163.50494771 309.24821692 152.28138888 309.2431947 C129.1906789 309.23273501 106.09997874 309.21513956 83.00927734 309.19287109 C83.01388631 310.14224737 83.01849527 311.09162365 83.0232439 312.06976891 C83.13433067 335.18942561 83.21644827 358.30904763 83.2683382 381.42891502 C83.29409996 392.60960765 83.32921185 403.79012379 83.38647461 414.97070312 C83.43637151 424.71775547 83.4685831 434.46467997 83.47971982 444.21185648 C83.48622789 449.37110832 83.50148162 454.52999445 83.53792763 459.68912888 C83.57198634 464.54993008 83.58231036 469.4102166 83.57481575 474.27112579 C83.57618589 476.05044226 83.58605938 477.8297768 83.60530472 479.60898972 C83.79204131 497.77079678 83.79204131 497.77079678 78.00927734 505.19287109 C72.23038868 510.54172392 67.94561684 512.30614683 60.01855469 512.38574219 C59.31080902 512.39391968 58.60306335 512.40209717 57.87387085 512.41052246 C55.530994 512.43533677 53.18817777 512.45188605 50.84521484 512.46630859 C49.64157728 512.47429411 49.64157728 512.47429411 48.41362381 512.48244095 C44.1628032 512.50916079 39.91201179 512.52853569 35.66113281 512.54296875 C32.15370461 512.55628337 28.64686158 512.58409097 25.13964844 512.625 C20.89562325 512.6744978 16.65212695 512.69911106 12.40782547 512.70619583 C10.79637503 512.71288115 9.18493512 512.72803195 7.57365036 512.75208664 C-8.9647299 512.98481493 -8.9647299 512.98481493 -15.99072266 507.19287109 C-18.14697266 504.84130859 -18.14697266 504.84130859 -19.49072266 502.56787109 C-20.18681641 501.43478516 -20.18681641 501.43478516 -20.89697266 500.27880859 C-23.0946238 496.08757392 -23.1297586 492.38086531 -23.11097717 487.77082825 C-23.11225881 486.62767223 -23.11225881 486.62767223 -23.11356634 485.46142215 C-23.11521729 482.90028313 -23.10970603 480.33920918 -23.10424805 477.77807617 C-23.10396607 475.94514467 -23.10412412 474.11221305 -23.10469055 472.27928162 C-23.1049781 467.29613727 -23.09908819 462.31301686 -23.09211659 457.32987809 C-23.08587603 452.12484244 -23.0852787 446.91980627 -23.08409119 441.71476746 C-23.08097995 431.85505676 -23.07276934 421.99535711 -23.0627417 412.13565129 C-23.05157413 400.91209663 -23.04606848 389.68854146 -23.04104626 378.46498263 C-23.03058657 355.37427265 -23.01299113 332.28357249 -22.99072266 309.19287109 C-23.70340427 309.19655827 -24.41608589 309.20024544 -25.15036392 309.20404434 C-42.48471074 309.29234919 -59.81900048 309.35855813 -77.15352249 309.40011978 C-85.53634972 309.42075249 -93.91902689 309.44888649 -102.30175781 309.49462891 C-109.60743552 309.53447514 -116.91300456 309.56029876 -124.21878791 309.56922507 C-128.08785181 309.57444363 -131.95660481 309.58672343 -135.82556915 309.61579132 C-139.46665909 309.64292574 -143.10730984 309.65132027 -146.74849129 309.64530182 C-148.72302472 309.64692831 -150.69751024 309.66846149 -152.67192078 309.69055176 C-153.84698685 309.6850531 -155.02205292 309.67955444 -156.23272705 309.67388916 C-157.25407368 309.67757633 -158.2754203 309.6812635 -159.32771683 309.68506241 C-162.6996337 309.06184627 -163.87908721 307.83654935 -165.99072266 305.19287109 C-166.52197266 303.19287109 -166.52197266 303.19287109 -166.49072266 301.19287109 C-166.50103516 300.53287109 -166.51134766 299.87287109 -166.52197266 299.19287109 C-165.74089617 296.25234784 -164.33794095 295.09723799 -161.99072266 293.19287109 C-159.16989231 292.68671322 -159.16989231 292.68671322 -155.84877014 292.6782074 C-154.58837418 292.66548294 -153.32797821 292.65275848 -152.02938843 292.63964844 C-150.63506892 292.64583072 -149.24075125 292.65243674 -147.84643555 292.65942383 C-146.3761356 292.65236553 -144.90584291 292.64362088 -143.43556213 292.63331604 C-139.44373613 292.61080123 -135.45230622 292.61376659 -131.46044087 292.62263751 C-128.12785886 292.62774547 -124.79535141 292.62045637 -121.46277708 292.61316544 C-113.60068817 292.59615961 -105.73879332 292.59973886 -97.87670898 292.61645508 C-89.76609042 292.63337676 -81.65601004 292.61754308 -73.54545027 292.5852322 C-66.58140202 292.55853997 -59.61752133 292.55125928 -52.65342706 292.55974728 C-48.49433 292.56467769 -44.33555677 292.5624551 -40.17650032 292.54195976 C-36.26516293 292.52360819 -32.3545998 292.52955395 -28.44330406 292.55415916 C-27.00861625 292.55916889 -25.5738695 292.5556729 -24.13922882 292.54301071 C-22.17942356 292.52708305 -20.21943047 292.54505046 -18.25965881 292.56468201 C-16.6151378 292.56556147 -16.6151378 292.56556147 -14.93739414 292.5664587 C-10.85998615 293.4332465 -9.4275013 294.83616554 -6.99072266 298.19287109 C-6.50271094 301.04393038 -6.32267161 303.29492277 -6.37167358 306.13894653 C-6.3654346 306.93331112 -6.35919563 307.7276757 -6.35276759 308.54611194 C-6.33785805 311.20507805 -6.35848729 313.86257251 -6.37890625 316.52148438 C-6.37536511 318.42866537 -6.36958759 320.33584334 -6.36174011 322.24301147 C-6.34955946 326.34809509 -6.35303007 330.45276319 -6.36857224 334.55783463 C-6.3928603 341.04493208 -6.38140647 347.53166454 -6.36489868 354.01876831 C-6.34039906 365.44334987 -6.3462086 376.86776574 -6.35870361 388.2923584 C-6.37728979 405.50211165 -6.37249938 422.71183402 -6.33866942 439.92156398 C-6.32713117 446.37446738 -6.33162681 452.82710642 -6.34868979 459.2799952 C-6.35656712 463.28773493 -6.35234942 467.29539707 -6.34498024 471.30313492 C-6.34416753 473.16600049 -6.34855066 475.02887641 -6.35842323 476.891716 C-6.37121957 479.42829119 -6.36580333 481.96419059 -6.35580444 484.50076294 C-6.36406262 485.24345779 -6.37232079 485.98615263 -6.38082922 486.75135338 C-6.35003548 490.67044841 -6.35003548 490.67044841 -4.65540504 494.11112785 C-1.23379686 496.33455591 1.81835558 496.32367844 5.77832031 496.33813477 C6.96320038 496.34451462 8.14808044 496.35089447 9.36886597 496.35746765 C10.6501236 496.35858047 11.93138123 496.3596933 13.25146484 496.36083984 C14.56712433 496.36416824 15.88278381 496.36749664 17.23831177 496.3709259 C20.02411723 496.37691266 22.80989169 496.3787663 25.59570312 496.37817383 C29.1588748 496.37807229 32.72184684 496.39171773 36.28497124 496.40894604 C39.69047208 496.42276491 43.09593632 496.42215548 46.50146484 496.42333984 C48.41727859 496.43411812 48.41727859 496.43411812 50.37179565 496.44511414 C52.15857224 496.44049919 52.15857224 496.44049919 53.98144531 496.43579102 C55.02718719 496.43721603 56.07292908 496.43864105 57.15036011 496.44010925 C60.16136549 496.17971856 62.32021292 495.55824062 65.00927734 494.19287109 C66.53425256 491.14292067 66.14476531 487.96675026 66.1338501 484.62101746 C66.13526025 483.83062728 66.13667039 483.0402371 66.13812327 482.2258957 C66.14178932 479.56277027 66.13843415 476.89969766 66.13525391 474.23657227 C66.13664805 472.33308368 66.13854696 470.42959541 66.14091492 468.52610779 C66.14541858 464.41947874 66.14726815 460.31285971 66.14737701 456.20622826 C66.14851509 449.71471486 66.16133668 443.22325862 66.17694092 436.73176575 C66.17951377 435.63727637 66.18208663 434.54278699 66.18473744 433.41513127 C66.1900042 431.17670373 66.19528968 428.93827623 66.20059347 426.69984877 C66.23573678 411.58187284 66.26225398 396.46396741 66.25976562 381.34594727 C66.25817844 371.15533474 66.27418041 360.96491644 66.31047225 350.7743662 C66.32895844 345.37894428 66.33825199 339.98384673 66.3259964 334.58839989 C66.31458057 329.51328134 66.32621454 324.4387439 66.35563087 319.36370277 C66.36228513 317.50008318 66.36038133 315.63641062 66.34933281 313.77281189 C66.33550589 311.22973447 66.35230188 308.68863103 66.37677002 306.14567566 C66.36541464 305.40676014 66.35405926 304.66784461 66.34235978 303.90653771 C66.41136991 300.22242457 66.94399925 298.28740137 69.05217934 295.23451138 C72.74333603 292.68606213 75.62201838 292.49915951 79.95535278 292.57382202 C80.74971737 292.56758304 81.54408195 292.56134406 82.36251819 292.55491602 C85.0214843 292.54000649 87.67897876 292.56063573 90.33789062 292.58105469 C92.24507162 292.57751354 94.15224959 292.57173602 96.05941772 292.56388855 C100.16450134 292.5517079 104.26916944 292.55517851 108.37424088 292.57072067 C114.86133833 292.59500874 121.34807079 292.58355491 127.83517456 292.56704712 C139.25975612 292.5425475 150.68417199 292.54835703 162.10876465 292.56085205 C179.3185179 292.57943823 196.52824027 292.57464781 213.73797023 292.54081786 C220.19087363 292.52927961 226.64351267 292.53377524 233.09640145 292.55083823 C237.10414118 292.55871556 241.11180332 292.55449785 245.11954117 292.54712868 C246.98240674 292.54631597 248.84528266 292.5506991 250.70812225 292.56057167 C253.24469744 292.57336801 255.78059684 292.56795177 258.31716919 292.55795288 C259.05986404 292.56621106 259.80255888 292.57446923 260.56775963 292.58297765 C264.48685466 292.55218391 264.48685466 292.55218391 267.9275341 290.85755348 C270.15096216 287.4359453 270.14008469 284.38379286 270.15454102 280.42382812 C270.16092087 279.23894806 270.16730072 278.05406799 270.1738739 276.83328247 C270.17498672 275.55202484 270.17609955 274.27076721 270.17724609 272.95068359 C270.18057449 271.63502411 270.18390289 270.31936462 270.18733215 268.96383667 C270.19331891 266.17803121 270.19517255 263.39225675 270.19458008 260.60644531 C270.19447854 257.04327363 270.20812398 253.4803016 270.22535229 249.9171772 C270.23917116 246.51167635 270.23856173 243.10621212 270.23974609 239.70068359 C270.25052437 237.78486984 270.25052437 237.78486984 270.26152039 235.83035278 C270.25844376 234.6391684 270.25536713 233.44798401 270.25219727 232.22070312 C270.25433479 230.6520903 270.25433479 230.6520903 270.2565155 229.05178833 C269.99612481 226.04078295 269.37464687 223.88193551 268.00927734 221.19287109 C264.95932692 219.66789588 261.78315651 220.05738313 258.43742371 220.06829834 C257.25183844 220.06618312 257.25183844 220.06618312 256.04230195 220.06402516 C253.37917652 220.06035912 250.71610391 220.06371429 248.05297852 220.06689453 C246.14948993 220.06550038 244.24600166 220.06360148 242.34251404 220.06123352 C238.23588499 220.05672985 234.12926596 220.05488029 230.02263451 220.05477142 C223.53112111 220.05363334 217.03966487 220.04081176 210.548172 220.02520752 C209.45368262 220.02263467 208.35919324 220.02006181 207.23153752 220.01741099 C204.99310998 220.01214424 202.75468248 220.00685876 200.51625502 220.00155497 C185.39827909 219.96641165 170.28037366 219.93989446 155.16235352 219.94238281 C144.97174099 219.94397 134.78132269 219.92796802 124.59077245 219.89167619 C119.19535053 219.87319 113.80025298 219.86389644 108.40480614 219.87615204 C103.32968759 219.88756787 98.25515015 219.8759339 93.18010902 219.84651756 C91.31648943 219.83986331 89.45281687 219.84176711 87.58921814 219.85281563 C85.04614072 219.86664255 82.50503728 219.84984656 79.96208191 219.82537842 C79.22316639 219.8367338 78.48425086 219.84808918 77.72294396 219.85978866 C74.03883082 219.79077853 72.10380762 219.25814919 69.05091763 217.1499691 C66.50246838 213.4588124 66.31556576 210.58013006 66.39022827 206.24679565 C66.3808698 205.05524878 66.3808698 205.05524878 66.37132227 203.83963025 C66.35641274 201.18066414 66.37704198 198.52316968 66.39746094 195.86425781 C66.39391979 193.95707682 66.38814227 192.04989885 66.3802948 190.14273071 C66.36811415 186.0376471 66.37158476 181.932979 66.38712692 177.82790756 C66.41141499 171.3408101 66.39996116 164.85407765 66.38345337 158.36697388 C66.35895375 146.94239232 66.36476328 135.51797644 66.3772583 124.09338379 C66.39584448 106.88363054 66.39105406 89.67390816 66.35722411 72.4641782 C66.34568586 66.01127481 66.35018149 59.55863576 66.36724448 53.10574698 C66.37512181 49.09800726 66.3709041 45.09034512 66.36353493 41.08260727 C66.36272222 39.2197417 66.36710535 37.35686577 66.37697792 35.49402618 C66.38977426 32.95745099 66.38435802 30.4215516 66.37435913 27.88497925 C66.38261731 27.1422844 66.39087548 26.39958956 66.3993839 25.6343888 C66.36859016 21.71529378 66.36859016 21.71529378 64.67395973 18.27461433 C61.25235155 16.05118628 58.20019911 16.06206375 54.24023438 16.04760742 C52.46291428 16.03803764 52.46291428 16.03803764 50.64968872 16.02827454 C49.36843109 16.02716171 48.08717346 16.02604889 46.76708984 16.02490234 C45.45143036 16.02157394 44.13577087 16.01824554 42.78024292 16.01481628 C39.99443746 16.00882952 37.208663 16.00697589 34.42285156 16.00756836 C30.85967988 16.0076699 27.29670785 15.99402446 23.73358345 15.97679615 C20.3280826 15.96297728 16.92261837 15.96358671 13.51708984 15.96240234 C11.60127609 15.95162407 11.60127609 15.95162407 9.64675903 15.94062805 C8.45557465 15.94370468 7.26439026 15.94678131 6.03710938 15.94995117 C4.99136749 15.94852615 3.94562561 15.94710114 2.86819458 15.94563293 C-0.1428108 16.20602362 -2.30165824 16.82750157 -4.99072266 18.19287109 C-6.51569787 21.24282152 -6.12621062 24.41899193 -6.11529541 27.76472473 C-6.11670556 28.55511491 -6.11811571 29.34550509 -6.11956859 30.15984648 C-6.12323463 32.82297191 -6.11987946 35.48604453 -6.11669922 38.14916992 C-6.11809337 40.05265851 -6.11999227 41.95614678 -6.12236023 43.8596344 C-6.1268639 47.96626345 -6.12871346 52.07288248 -6.12882233 56.17951393 C-6.12996041 62.67102733 -6.14278199 69.16248356 -6.15838623 75.65397644 C-6.16095908 76.74846582 -6.16353194 77.84295519 -6.16618276 78.97061092 C-6.17144951 81.20903846 -6.17673499 83.44746596 -6.18203878 85.68589342 C-6.2171821 100.80386935 -6.24369929 115.92177478 -6.24121094 131.03979492 C-6.23962375 141.23040745 -6.25562573 151.42082575 -6.29191756 161.61137599 C-6.31040375 167.00679791 -6.31969731 172.40189546 -6.30744171 177.7973423 C-6.29602588 182.87246085 -6.30765985 187.94699829 -6.33707619 193.02203941 C-6.34373044 194.88565901 -6.34182664 196.74933157 -6.33077812 198.6129303 C-6.3169512 201.15600771 -6.33374719 203.69711116 -6.35821533 206.24006653 C-6.34685995 206.97898205 -6.33550457 207.71789757 -6.32380509 208.47920448 C-6.39281522 212.16331762 -6.92544456 214.09834081 -9.03362465 217.15123081 C-12.72478135 219.69968006 -15.60346369 219.88658268 -19.9367981 219.81192017 C-20.73116268 219.81815915 -21.52552727 219.82439812 -22.3439635 219.83082616 C-25.00292961 219.8457357 -27.66042407 219.82510646 -30.31933594 219.8046875 C-32.22651693 219.80822864 -34.1336949 219.81400616 -36.04086304 219.82185364 C-40.14594665 219.83403429 -44.25061475 219.83056368 -48.35568619 219.81502151 C-54.84278365 219.79073345 -61.3295161 219.80218728 -67.81661987 219.81869507 C-79.24120143 219.84319469 -90.66561731 219.83738515 -102.09020996 219.82489014 C-119.29996321 219.80630396 -136.50968559 219.81109437 -153.71941555 219.84492433 C-160.17231894 219.85646258 -166.62495799 219.85196694 -173.07784677 219.83490396 C-177.08558649 219.82702663 -181.09324863 219.83124433 -185.10098648 219.83861351 C-186.96385205 219.83942622 -188.82672798 219.83504309 -190.68956757 219.82517052 C-193.22614276 219.81237418 -195.76204215 219.81779042 -198.2986145 219.82778931 C-199.04130935 219.81953113 -199.78400419 219.81127296 -200.54920495 219.80276453 C-204.46829997 219.83355827 -204.46829997 219.83355827 -207.90897942 221.52818871 C-210.13240747 224.94979689 -210.12153 228.00194933 -210.13598633 231.96191406 C-210.14236618 233.14679413 -210.14874603 234.33167419 -210.15531921 235.55245972 C-210.15643204 236.83371735 -210.15754486 238.11497498 -210.15869141 239.43505859 C-210.16201981 240.75071808 -210.16534821 242.06637756 -210.16877747 243.42190552 C-210.17476423 246.20771098 -210.17661786 248.99348544 -210.17602539 251.77929688 C-210.17592385 255.34246855 -210.18956929 258.90544059 -210.2067976 262.46856499 C-210.22061647 265.87406583 -210.22000704 269.27953007 -210.22119141 272.68505859 C-210.22837692 273.96226776 -210.23556244 275.23947693 -210.2429657 276.5553894 C-210.23988907 277.74657379 -210.23681244 278.93775818 -210.23364258 280.16503906 C-210.23578011 281.73365189 -210.23578011 281.73365189 -210.23796082 283.33395386 C-209.97757013 286.34495924 -209.35609218 288.50380667 -207.99072266 291.19287109 C-205.58986342 292.39330071 -204.02169265 292.33309404 -201.34228516 292.36865234 C-200.41931641 292.3925 -199.49634766 292.41634766 -198.54541016 292.44091797 C-196.60031732 292.48371001 -194.6549373 292.51505643 -192.70947266 292.53466797 C-185.64668004 292.74615828 -185.64668004 292.74615828 -182.35791016 294.98583984 C-180.92444118 297.29986834 -180.44858278 298.49591907 -180.49072266 301.19287109 C-180.48041016 301.85287109 -180.47009766 302.51287109 -180.45947266 303.19287109 C-181.23253697 306.10323086 -182.6952792 307.28406716 -184.99072266 309.19287109 C-188.8247254 310.01144604 -192.7040598 309.79557561 -196.61572266 309.75537109 C-197.65857422 309.77921875 -198.70142578 309.80306641 -199.77587891 309.82763672 C-207.12918117 309.81386649 -212.91205796 308.46694325 -218.99072266 304.19287109 C-224.36276978 298.45590763 -226.10431848 294.09733199 -226.18359375 286.20214844 C-226.19177124 285.49440277 -226.19994873 284.7866571 -226.20837402 284.0574646 C-226.23318834 281.71458775 -226.24973761 279.37177152 -226.26416016 277.02880859 C-226.26948383 276.22638355 -226.27480751 275.42395851 -226.28029251 274.59721756 C-226.30701236 270.34639695 -226.32638725 266.09560554 -226.34082031 261.84472656 C-226.35413493 258.33729836 -226.38194253 254.83045533 -226.42285156 251.32324219 C-226.47234937 247.079217 -226.49696262 242.8357207 -226.50404739 238.59141922 C-226.51073272 236.97996878 -226.52588351 235.36852887 -226.5499382 233.75724411 C-226.78266649 217.21886385 -226.78266649 217.21886385 -220.99072266 210.19287109 C-218.63916016 208.03662109 -218.63916016 208.03662109 -216.36572266 206.69287109 C-215.61033203 206.22880859 -214.85494141 205.76474609 -214.07666016 205.28662109 C-209.88542548 203.08896995 -206.17871688 203.05383515 -201.56867981 203.07261658 C-200.42552379 203.07133494 -200.42552379 203.07133494 -199.25927371 203.07002741 C-196.69813469 203.06837646 -194.13706075 203.07388772 -191.57592773 203.0793457 C-189.74299623 203.07962768 -187.91006462 203.07946963 -186.07713318 203.0789032 C-181.09398883 203.07861565 -176.11086843 203.08450556 -171.12772965 203.09147716 C-165.922694 203.09771772 -160.71765783 203.09831505 -155.51261902 203.09950256 C-145.65290832 203.1026138 -135.79320868 203.11082441 -125.93350285 203.12085205 C-114.7099482 203.13201962 -103.48639302 203.13752527 -92.26283419 203.14254749 C-69.17212421 203.15300718 -46.08142405 203.17060262 -22.99072266 203.19287109 C-22.9976361 201.76880668 -22.9976361 201.76880668 -23.00468922 200.31597328 C-23.11577598 177.19631657 -23.19789358 154.07669455 -23.24978352 130.95682716 C-23.27554527 119.77613453 -23.31065716 108.5956184 -23.36791992 97.41503906 C-23.41781682 87.66798672 -23.45002841 77.92106222 -23.46116513 68.1738857 C-23.4676732 63.01463387 -23.48292693 57.85574773 -23.51937294 52.69661331 C-23.55343165 47.83581211 -23.56375567 42.97552559 -23.55626106 38.11461639 C-23.5576312 36.33529992 -23.56750469 34.55596539 -23.58675003 32.77675247 C-23.77348662 14.61494541 -23.77348662 14.61494541 -17.99072266 7.19287109 C-12.21183399 1.84401827 -7.92706215 0.07959536 0 0 Z " fill="#2D7C31" transform="translate(225.99072265625,-0.19287109375)"/>
</svg>
