<?xml version="1.0" encoding="UTF-8"?>
<svg version="1.1" xmlns="http://www.w3.org/2000/svg" width="512" height="512">
<path d="M0 0 C7.48676857 5.88246102 13.59639515 13.80110646 15.125 23.375 C16.46047462 35.61998558 14.73166973 45.30022842 9.125 56.375 C8.74988281 57.13490234 8.37476563 57.89480469 7.98828125 58.67773438 C-7.44778579 89.77466554 -30.44519617 118.0194842 -57.875 139.375 C-58.97885806 140.27714636 -60.08027887 141.18228035 -61.1796875 142.08984375 C-87.20371764 163.46710745 -113.97007041 182.92715642 -148.89819336 182.75976562 C-150.35521364 182.76388256 -151.81223062 182.76934999 -153.26924133 182.77604675 C-156.37986908 182.78767523 -159.49031989 182.79029105 -162.6009655 182.78569031 C-167.5332665 182.77881477 -172.4653395 182.7948603 -177.39759827 182.81408691 C-187.86922007 182.8517632 -198.34082082 182.8647138 -208.8125 182.875 C-220.11890408 182.88610881 -231.42520092 182.90165566 -242.73153216 182.94571257 C-247.62085349 182.96392292 -252.50990872 182.96801426 -257.39925563 182.96077728 C-260.45592221 182.95924119 -263.51245895 182.97012754 -266.56908989 182.98415565 C-267.97097785 182.98811311 -269.37289144 182.98711203 -270.77476883 182.98038292 C-282.8289922 182.92702924 -294.65176732 184.09491561 -305.4375 189.8125 C-306.55253906 190.38871094 -307.66757812 190.96492187 -308.81640625 191.55859375 C-314.62965417 194.86057103 -314.62965417 194.86057103 -317.875 200.375 C-317.24851562 200.96667969 -316.62203125 201.55835938 -315.9765625 202.16796875 C-315.15929687 202.95816406 -314.34203125 203.74835938 -313.5 204.5625 C-312.68789063 205.33980469 -311.87578125 206.11710938 -311.0390625 206.91796875 C-307.86148466 210.5257241 -306.82241885 212.81274904 -306.98512268 217.6468811 C-308.07150036 222.19823337 -310.20013887 224.51494925 -313.46459961 227.66162109 C-314.04674728 228.24625122 -314.62889496 228.83088135 -315.22868347 229.43322754 C-317.14753948 231.3529984 -319.08684244 233.25056899 -321.02734375 235.1484375 C-322.36757381 236.48000944 -323.70655125 237.81284322 -325.04432678 239.1468811 C-328.56320968 242.64855868 -332.10017191 246.1314227 -335.64080811 249.61108398 C-338.53396805 252.46057942 -341.41401369 255.32312895 -344.29346371 258.18646812 C-347.72133226 261.59475876 -351.15466191 264.99751943 -354.58984375 268.3984375 C-355.24737074 269.04953869 -355.90489773 269.70063988 -356.58234978 270.37147141 C-358.43733599 272.20553396 -360.29593485 274.03584229 -362.15600586 275.86474609 C-362.70828857 276.41119781 -363.26057129 276.95764954 -363.82958984 277.5206604 C-367.23915516 280.86255609 -369.22809669 282.54246318 -374 282.875 C-377.86257843 282.77380644 -379.67469874 282.14415527 -382.49855042 279.51679993 C-383.1903496 278.87688425 -383.88214878 278.23696857 -384.59491158 277.57766151 C-389.02892377 273.29421886 -393.41852819 268.97020717 -397.77319336 264.60620117 C-398.84642281 263.53432941 -399.91986429 262.46266991 -400.99349976 261.39120483 C-403.88582664 258.50340528 -406.77501976 255.61248996 -409.66349101 252.72083449 C-412.69241651 249.68936492 -415.72379498 246.66034978 -418.754776 243.63093567 C-423.8361186 238.55140714 -428.91536033 233.46978504 -433.9934082 228.38696289 C-439.86743761 222.50747473 -445.7450845 216.63162135 -451.62458891 210.75760859 C-456.67879314 205.70793631 -461.73105371 200.65632559 -466.78168207 195.60307676 C-469.79589887 192.5872999 -472.81078986 189.57220541 -475.82743645 186.55885887 C-478.65737841 183.73179739 -481.48487854 180.90231655 -484.31048203 178.07091904 C-485.34929465 177.03078052 -486.38896592 175.99149878 -487.42954063 174.95312309 C-488.84550461 173.53987682 -490.25810856 172.12326641 -491.67051697 170.70646667 C-492.85925368 169.51716443 -492.85925368 169.51716443 -494.07200527 168.30383587 C-497.13791622 165.02393775 -497.43269679 162.27305505 -497.30778503 157.89320374 C-496.80811596 154.98582841 -496.0949681 153.98203279 -494.10668945 151.84155273 C-493.46744537 151.15044403 -492.82820129 150.45933533 -492.16958618 149.74728394 C-487.38098213 144.79653135 -482.54314319 139.90041671 -477.66796875 135.03515625 C-476.49434573 133.86085843 -475.3208711 132.68641229 -474.14753723 131.51182556 C-471.70422545 129.06704862 -469.25913688 126.62406688 -466.81274414 124.18237305 C-463.6742271 121.0495907 -460.54027229 117.91228856 -457.40760326 114.77365971 C-454.99283488 112.35528602 -452.57570018 109.9392888 -450.15783119 107.52401543 C-449.00043621 106.36728784 -447.84378447 105.20981609 -446.68788719 104.05159187 C-445.07972778 102.44090239 -443.46841468 100.83343678 -441.85620117 99.22680664 C-440.94021652 98.31161758 -440.02423187 97.39642853 -439.08049011 96.45350647 C-436.1234871 93.66675632 -434.52719987 93.20496033 -430.5625 93.125 C-429.80324219 93.09921875 -429.04398437 93.0734375 -428.26171875 93.046875 C-425.26141454 93.45935545 -423.36526506 94.70013146 -420.875 96.375 C-420.25753906 95.49199219 -419.64007813 94.60898437 -419.00390625 93.69921875 C-411.37192766 82.85409518 -403.46519646 72.58412905 -393.875 63.375 C-393.029375 62.529375 -392.18375 61.68375 -391.3125 60.8125 C-390.508125 60.008125 -389.70375 59.20375 -388.875 58.375 C-388.43542969 57.88902344 -387.99585938 57.40304687 -387.54296875 56.90234375 C-371.0204205 39.20857689 -344.82592532 24.16163139 -320.52539062 22.08935547 C-317.1567717 21.97539077 -313.80771194 21.95795993 -310.4375 22 C-308.6599231 22.01522705 -308.6599231 22.01522705 -306.84643555 22.03076172 C-298.47296192 22.17935214 -290.8802526 22.75922696 -282.875 25.375 C-281.95581787 25.67301514 -281.95581787 25.67301514 -281.01806641 25.97705078 C-272.48810878 28.80343287 -264.4308945 32.35664747 -256.54150391 36.65893555 C-248.33095995 41.01557282 -240.1987071 41.66940278 -231.02197266 41.63037109 C-229.97518845 41.63399155 -228.92840424 41.637612 -227.84989929 41.64134216 C-225.59103894 41.64820215 -223.33216214 41.65074802 -221.07329178 41.64939499 C-217.4905108 41.64842435 -213.90802539 41.66143566 -210.32528687 41.67837524 C-200.14363875 41.72448568 -189.96202249 41.74924774 -179.78027344 41.75585938 C-173.53872412 41.76088827 -167.29748557 41.78520499 -161.05604172 41.82118607 C-158.68714645 41.83094855 -156.31820826 41.83333554 -153.94929886 41.82801437 C-150.62813583 41.8209029 -147.30789264 41.83830988 -143.98681641 41.86083984 C-143.02127335 41.85266739 -142.05573029 41.84449493 -141.06092834 41.83607483 C-130.05546798 41.96803739 -120.79931081 45.70343456 -112.875 53.375 C-110.38137174 56.26963687 -108.07643278 59.25335416 -105.875 62.375 C-98.59508663 58.66020308 -92.15985302 54.59238753 -85.875 49.375 C-84.98554687 48.70404297 -84.98554687 48.70404297 -84.078125 48.01953125 C-74.47770269 40.51094408 -68.69339832 29.56286104 -62.92578125 19.08203125 C-56.53134517 7.47146625 -48.79100186 -2.17157396 -35.7265625 -6.3046875 C-23.04251274 -9.55358446 -10.8848951 -7.37604688 0 0 Z M-40.875 23.375 C-42.61713329 26.20220479 -44.15476427 29.11771887 -45.6875 32.0625 C-49.83486644 39.75032031 -54.28829294 46.62842296 -59.875 53.375 C-60.62007813 54.29539062 -61.36515625 55.21578125 -62.1328125 56.1640625 C-70.42857222 65.88351696 -80.22729517 73.35340618 -91.83813477 78.63183594 C-98.93823863 81.69052398 -98.93823863 81.69052398 -103.3671875 87.66015625 C-104.0438399 91.24233589 -104.0438399 91.24233589 -104.3671875 94.8671875 C-105.48133473 102.56337372 -110.85938931 109.37172355 -116.9140625 114.09765625 C-123.44935894 118.3547119 -129.78920129 121.48174891 -137.65698242 121.52217102 C-138.615914 121.52932632 -139.57484558 121.53648163 -140.56283569 121.54385376 C-141.6081546 121.54654266 -142.65347351 121.54923157 -143.73046875 121.55200195 C-144.83653473 121.55857315 -145.94260071 121.56514435 -147.08218384 121.57191467 C-150.7422899 121.59162691 -154.40235507 121.60330288 -158.0625 121.61328125 C-159.31155121 121.61735678 -160.56060242 121.6214323 -161.84750366 121.62563133 C-167.7720487 121.64433035 -173.69658073 121.65890178 -179.62114811 121.6672433 C-186.45719487 121.67702803 -193.2929189 121.70338772 -200.12885189 121.74374419 C-206.05339354 121.77751977 -211.97785582 121.78938601 -217.90249634 121.79344749 C-220.4223551 121.79832993 -222.94221 121.80999061 -225.46200562 121.82848549 C-228.98144587 121.85272141 -232.50003386 121.85194054 -236.01953125 121.8449707 C-237.58750961 121.86418579 -237.58750961 121.86418579 -239.18716431 121.88378906 C-246.21529457 121.83289695 -246.21529457 121.83289695 -249.49487305 119.55656433 C-251.47634102 116.42446126 -251.81129056 114.07014767 -251.875 110.375 C-249.70258621 104.7887931 -249.70258621 104.7887931 -246.875 103.375 C-245.48673777 103.27586358 -244.09389753 103.23728014 -242.70211792 103.23023987 C-241.8274437 103.22334137 -240.95276947 103.21644287 -240.05158997 103.20933533 C-239.08952133 103.20672195 -238.1274527 103.20410858 -237.13623047 103.20141602 C-235.61888054 103.1913855 -235.61888054 103.1913855 -234.07087708 103.18115234 C-231.86809379 103.16707702 -229.6652957 103.15519093 -227.46249008 103.14520454 C-223.97356591 103.12881879 -220.48475055 103.10557953 -216.99588013 103.08030701 C-207.0738059 103.00948062 -197.15168602 102.94951756 -187.22949219 102.89819336 C-181.16467113 102.8663401 -175.09997293 102.82504225 -169.03525162 102.77799797 C-166.72528426 102.76200887 -164.41528858 102.74967307 -162.10528183 102.74109077 C-158.86677392 102.72889024 -155.62855268 102.70471815 -152.39013672 102.67797852 C-150.96525185 102.6770948 -150.96525185 102.6770948 -149.51158142 102.67619324 C-141.45733296 102.58840232 -134.25553548 101.76300774 -127.875 96.375 C-124.15891292 91.76504332 -121.875 87.41007452 -121.875 81.375 C-123.10669369 75.21653157 -125.39436788 70.75143137 -129.875 66.375 C-136.97855623 61.99195467 -144.29152701 62.22878973 -152.37158203 62.2331543 C-153.41632187 62.22967987 -154.46106171 62.22620544 -155.53746033 62.22262573 C-157.80128577 62.21528802 -160.06511831 62.20993209 -162.32895279 62.20633507 C-165.92011527 62.19914405 -169.51114313 62.18345677 -173.1022644 62.16499329 C-183.31132136 62.112654 -193.52030399 62.06458161 -203.72949219 62.04907227 C-209.98057499 62.03895483 -216.2313175 62.00953497 -222.48226547 61.96775246 C-224.85590916 61.95549163 -227.229601 61.95031214 -229.6032753 61.95255089 C-253.30768675 61.96940416 -253.30768675 61.96940416 -262.875 57.375 C-264.50018555 56.67395142 -264.50018555 56.67395142 -266.15820312 55.95874023 C-266.98255859 55.53794189 -267.80691406 55.11714355 -268.65625 54.68359375 C-270.07357422 53.97879883 -270.07357422 53.97879883 -271.51953125 53.25976562 C-273.42475481 52.29412222 -275.32840309 51.3253645 -277.23046875 50.35351562 C-294.72942815 41.67565513 -314.09051141 39.98780367 -332.73706055 46.15454102 C-348.17701713 51.68071589 -360.98032625 61.28971715 -372.875 72.375 C-373.45491699 72.91108887 -374.03483398 73.44717773 -374.63232422 73.99951172 C-384.17875899 82.91390667 -392.38330315 92.6785073 -399.875 103.375 C-400.37499512 104.08301758 -400.87499023 104.79103516 -401.39013672 105.52050781 C-401.85822754 106.21756836 -402.32631836 106.91462891 -402.80859375 107.6328125 C-403.23068115 108.25559082 -403.65276855 108.87836914 -404.08764648 109.52001953 C-405.113817 111.93764545 -404.72634352 112.91962594 -403.875 115.375 C-402.688106 116.99988516 -402.688106 116.99988516 -401.13523865 118.4755249 C-400.55328735 119.06160019 -399.97133606 119.64767548 -399.37174988 120.25151062 C-398.40934135 121.1977404 -398.40934135 121.1977404 -397.42749023 122.16308594 C-396.75434784 122.83666641 -396.08120544 123.51024689 -395.38766479 124.20423889 C-393.16001129 126.4298017 -390.92191843 128.6445491 -388.68359375 130.859375 C-387.13737336 132.40000046 -385.59181381 133.94128942 -384.04689026 135.48321533 C-379.97803193 139.54061686 -375.90024498 143.58892902 -371.82055664 147.63543701 C-367.65946426 151.76584676 -363.50684675 155.90475734 -359.35351562 160.04296875 C-351.2022997 168.16200576 -343.04162951 176.27146917 -334.875 184.375 C-333.59463248 183.41557151 -332.31438148 182.45598752 -331.03417969 181.49633789 C-329.96475128 180.69481041 -329.96475128 180.69481041 -328.87371826 179.87709045 C-327.35412904 178.73507834 -325.83987872 177.58595817 -324.328125 176.43359375 C-310.74298595 166.43743647 -295.99854063 162.91632904 -279.37011719 162.97436523 C-277.94456918 162.96860936 -276.51902604 162.96152116 -275.0934906 162.95321655 C-272.04449702 162.93820198 -268.99567742 162.93232066 -265.94664764 162.93374443 C-261.11083949 162.93579506 -256.27526144 162.91609667 -251.43951416 162.89356995 C-242.03901046 162.85273609 -232.63852546 162.83403484 -223.23795319 162.81739807 C-211.28752095 162.79499657 -199.33714309 162.76116559 -187.38679814 162.71019894 C-182.59481834 162.6904567 -177.80295989 162.68070938 -173.01094103 162.67924678 C-170.01106304 162.67646564 -167.0112504 162.66556913 -164.01140022 162.65273666 C-161.99025023 162.64652539 -159.96907741 162.65001748 -157.94792175 162.65397644 C-119.4873795 162.4424688 -90.74626197 140.62158904 -63.25 115.53125 C-61.11113442 113.5893852 -58.94080615 111.69522404 -56.75 109.8125 C-49.87674979 103.7932408 -43.85705418 97.34132677 -38.15234375 90.203125 C-36.69706495 88.3958834 -35.21241129 86.61165987 -33.69140625 84.859375 C-21.89008935 71.14376248 -5.03125265 47.94890949 -5.51171875 29.16015625 C-6.10285176 24.62813652 -7.61896703 21.58027077 -10.875 18.375 C-22.43363927 10.4897386 -32.75170208 12.336497 -40.875 23.375 Z M-432.55177307 119.93151855 C-433.64098305 121.02405945 -433.64098305 121.02405945 -434.75219727 122.13867188 C-435.98336021 123.36994812 -435.98336021 123.36994812 -437.23939514 124.62609863 C-438.13105881 125.52292358 -439.02272247 126.41974854 -439.94140625 127.34375 C-441.30434059 128.70880676 -441.30434059 128.70880676 -442.69480896 130.10144043 C-445.11531969 132.52577694 -447.53281302 134.95310106 -449.94970703 137.38104248 C-452.41453875 139.85608703 -454.88218902 142.32831783 -457.34960938 144.80078125 C-462.19418121 149.65609147 -467.03557376 154.51456116 -471.875 159.375 C-467.14444145 165.06301042 -462.0810954 170.30514909 -456.84033203 175.52319336 C-455.50765541 176.85608902 -455.50765541 176.85608902 -454.14805603 178.21591187 C-451.73086711 180.63252678 -449.31149312 183.04691301 -446.89108896 185.46030498 C-444.35485876 187.9902501 -441.8214926 190.52305995 -439.28781128 193.05555725 C-434.49823711 197.84203323 -429.70612136 202.6259561 -424.91306961 207.40894943 C-419.45276393 212.85804685 -413.9953245 218.31001111 -408.53811479 223.76220882 C-397.3202454 234.96964808 -386.09881183 246.17351168 -374.875 257.375 C-371.09645213 254.18009759 -367.36242291 250.98875047 -363.86743164 247.48095703 C-363.16723404 246.7806839 -362.46703644 246.08041077 -361.74562073 245.35891724 C-361.01616745 244.62430267 -360.28671417 243.88968811 -359.53515625 243.1328125 C-358.76819931 242.36444061 -358.00124237 241.59606873 -357.21104431 240.80441284 C-354.7841526 238.37196491 -352.36077873 235.93604678 -349.9375 233.5 C-348.28343514 231.84091448 -346.62914055 230.18205798 -344.97460938 228.5234375 C-340.9387454 224.47660264 -336.90596321 220.42671572 -332.875 216.375 C-337.60371486 210.6915211 -342.66123344 205.44657637 -347.89379883 200.22680664 C-348.78064362 199.33820953 -349.6674884 198.44961243 -350.58120728 197.53408813 C-352.99426237 195.11740621 -355.40951953 192.70296962 -357.82597947 190.28969502 C-360.35877172 187.75944726 -362.88910897 185.22674623 -365.41984558 182.69444275 C-369.66213503 178.45033968 -373.90651646 174.20833733 -378.15209961 169.9675293 C-383.06535774 165.0597333 -387.9749747 160.14831683 -392.88275701 155.23504549 C-397.10097944 151.01229395 -401.32113621 146.79148298 -405.5429346 142.57230657 C-408.06293898 140.05386338 -410.58225751 137.53474408 -413.09983253 135.01387215 C-415.8980956 132.21219965 -418.70041011 129.41460211 -421.50317383 126.61743164 C-422.34106949 125.77751175 -423.17896515 124.93759186 -424.04225159 124.07221985 C-425.17983917 122.938862 -425.17983917 122.938862 -426.34040833 121.78260803 C-427.00275891 121.12063447 -427.6651095 120.45866091 -428.34753132 119.77662754 C-430.48807701 117.81243159 -430.39608502 117.93043176 -432.55177307 119.93151855 Z " fill="#2D7C31" transform="translate(496.875,229.625)"/>
<path d="M0 0 C0.65880157 0.00054382 1.31760315 0.00108765 1.99636841 0.00164795 C12.95238411 0.04311848 23.02808484 0.92633618 33.4375 4.375 C34.07606934 4.58398926 34.71463867 4.79297852 35.37255859 5.00830078 C64.02610362 14.73433246 86.96381086 34.91929528 100.35009766 62.04101562 C107.72174945 77.5762818 110.83644652 92.80812218 110.8125 109.9375 C110.81195618 110.59630157 110.81141235 111.25510315 110.81085205 111.93386841 C110.76938152 122.88988411 109.88616382 132.96558484 106.4375 143.375 C106.22851074 144.01356934 106.01952148 144.65213867 105.80419922 145.31005859 C96.07816754 173.96360362 75.89320472 196.90131086 48.77148438 210.28759766 C33.2362182 217.65924945 18.00437782 220.77394652 0.875 220.75 C0.21619843 220.74945618 -0.44260315 220.74891235 -1.12136841 220.74835205 C-26.76301208 220.65129373 -51.01805906 212.40066307 -70.5625 195.375 C-71.38363281 194.68664062 -72.20476562 193.99828125 -73.05078125 193.2890625 C-93.03228465 176.07327264 -106.14481639 151.57519568 -109.5625 125.375 C-109.87980315 120.51757985 -109.94430387 115.6794325 -109.9375 110.8125 C-109.93695618 110.15369843 -109.93641235 109.49489685 -109.93585205 108.81613159 C-109.82213551 78.77358719 -97.89072415 52.46935612 -77.3125 30.6875 C-56.15362293 10.53796866 -29.12936069 -0.04072224 0 0 Z M-66.5625 50.375 C-85.04045901 71.36339262 -90.11516359 96.07012042 -88.5625 123.375 C-85.82725792 146.60009616 -71.97431075 167.80763478 -53.875 182.125 C-33.89876476 196.38264976 -9.90777595 203.04636128 14.48828125 199.125 C38.75342958 194.69279414 59.23403535 182.14966211 73.7734375 162.1640625 C79.3615917 154.06060403 83.29419515 145.68401821 86.4375 136.375 C86.7778125 135.41078125 87.118125 134.4465625 87.46875 133.453125 C92.23204061 117.13444421 91.09652121 97.29430266 85.4375 81.375 C84.80134766 79.58255859 84.80134766 79.58255859 84.15234375 77.75390625 C75.16194543 54.88974561 57.80089496 38.27799263 35.97265625 27.84375 C0.00508819 12.90031841 -39.95982185 22.35577882 -66.5625 50.375 Z " fill="#2D7C31" transform="translate(315.5625,-0.375)"/>
<path d="M0 0 C3.78232743 0.93829694 5.23271268 2.51937837 7.53515625 5.62890625 C7.7974074 8.44162186 7.8512332 10.84499134 7.72265625 13.62890625 C7.73721658 16.46500502 8.01095174 18.80119734 8.53515625 21.62890625 C10.87521044 23.79311822 12.88619263 24.53325516 15.87890625 25.578125 C20.36044171 27.35096771 23.14311591 30.50758833 25.53515625 34.62890625 C26.55677934 38.16478358 26.33556057 41.07854327 24.60546875 44.4296875 C22.62438882 47.1423427 20.79451341 48.53305687 17.66015625 49.69140625 C12.43480616 49.58689925 8.73306643 47.52096702 4.59765625 44.44140625 C0.4249384 41.97183854 -1.66599227 42.00969961 -6.46484375 42.62890625 C-9.13151042 43.96223958 -9.13151042 43.96223958 -10.46484375 46.62890625 C-11.01170594 49.40878904 -11.19475844 51.88099212 -10.46484375 54.62890625 C-8.23002301 57.6783907 -6.83929384 58.53463293 -3.14453125 59.46484375 C-1.88898438 59.64273438 -0.6334375 59.820625 0.66015625 60.00390625 C10.43956099 61.66835975 17.4751426 65.24303631 23.28125 73.40625 C27.87056102 81.54119695 28.91721327 89.47110122 27.53515625 98.62890625 C25.16715613 106.14436762 21.30553464 112.42516721 14.53515625 116.62890625 C13.48457031 117.01175781 12.43398438 117.39460938 11.3515625 117.7890625 C10.42214844 118.39621094 9.49273437 119.00335938 8.53515625 119.62890625 C8.03777835 122.48960153 7.87267317 124.65823392 7.97265625 127.50390625 C8.10657079 131.95960827 8.09585925 134.87734667 5.3203125 138.59765625 C1.58640693 141.32084124 -0.60462067 141.35093726 -5.0859375 141.1171875 C-8.80255068 140.35433586 -10.35175254 138.69629672 -12.46484375 135.62890625 C-13.49301576 131.82857425 -13.57045555 128.23957963 -13.52734375 124.31640625 C-13.51832031 123.24777344 -13.50929688 122.17914063 -13.5 121.078125 C-13.48839844 120.26988281 -13.47679687 119.46164063 -13.46484375 118.62890625 C-14.20992188 118.51675781 -14.955 118.40460938 -15.72265625 118.2890625 C-22.84320535 116.57485624 -29.66701916 109.71457697 -33.46484375 103.62890625 C-34.49917938 100.10155654 -34.24166435 97.19272415 -32.5703125 93.828125 C-30.40747333 90.79725674 -28.5554705 89.65691816 -25.02734375 88.56640625 C-18.4800858 88.68127042 -14.62900165 92.11541193 -9.98046875 96.32421875 C-6.53634076 99.28900934 -2.79523891 98.92045761 1.53515625 98.62890625 C2.52515625 98.29890625 3.51515625 97.96890625 4.53515625 97.62890625 C5.42730277 94.95246668 5.67055836 93.37506247 5.66015625 90.62890625 C5.66273438 89.94828125 5.6653125 89.26765625 5.66796875 88.56640625 C5.60146751 86.41015844 5.60146751 86.41015844 4.53515625 83.62890625 C1.33667774 82.44685984 -1.64822832 81.74235969 -5.0234375 81.2734375 C-13.95599071 79.99373839 -21.19950336 76.92530477 -26.90234375 69.69140625 C-32.19254819 61.80093183 -34.34583367 54.08882019 -32.90234375 44.69140625 C-30.89969542 36.16357262 -26.50605518 29.72839949 -19.39453125 24.6875 C-17.41993632 23.6042708 -15.66640654 23.06432645 -13.46484375 22.62890625 C-13.48804688 21.83226563 -13.51125 21.035625 -13.53515625 20.21484375 C-13.65089945 13.4190647 -13.68123262 8.13818863 -9.96484375 2.25390625 C-6.60842067 0.07223125 -3.9332428 0.10334641 0 0 Z " fill="#2D7C31" transform="translate(318.46484375,39.37109375)"/>
<path d="M0 0 C4.61845663 0.94640505 7.20220492 4.20312083 10.3828125 7.48828125 C11.42333651 8.46753823 12.46789764 9.44251639 13.515625 10.4140625 C14.6183942 11.45836262 15.7199566 12.50393859 16.8203125 13.55078125 C17.35309814 14.04481445 17.88588379 14.53884766 18.43481445 15.04785156 C21.82953343 18.37270677 23.23935803 20.71515996 23.3828125 25.48828125 C22.15817633 29.73848913 21.23308224 31.86990326 17.6328125 34.48828125 C13.52251143 35.75298927 11.51214862 35.76979935 7.3828125 34.48828125 C4.41584658 32.45042783 1.94343374 30.00782301 -0.6171875 27.48828125 C-1.49503906 26.69421875 -2.37289062 25.90015625 -3.27734375 25.08203125 C-12.26228126 16.70470822 -12.26228126 16.70470822 -12.6171875 9.48828125 C-10.91706889 2.30528012 -7.11656987 -0.21738718 0 0 Z " fill="#2E7C32" transform="translate(103.6171875,414.51171875)"/>
</svg>
