<?xml version="1.0" encoding="UTF-8"?>
<svg version="1.1" xmlns="http://www.w3.org/2000/svg" width="512" height="512">
<path d="M0 0 C9.63211015 5.67923413 12.37284621 17.54119518 15.7890625 27.51953125 C16.42584494 29.35121962 17.06262965 31.1829072 17.69950962 33.01456165 C18.37066627 34.9488453 19.03852275 36.88423865 19.7053833 38.82000732 C21.10307744 42.87674454 22.51023903 46.93015557 23.91943359 50.98291016 C24.15550953 51.66193138 24.39158546 52.34095261 24.63481522 53.04055023 C25.11185858 54.4126585 25.58892334 55.78475934 26.06600952 57.15685272 C26.78163025 59.21593785 27.4963898 61.27532012 28.2109375 63.33477783 C32.21419036 74.8689656 36.28823382 86.37712955 40.39453125 97.875 C45.76404803 112.92445212 51.08482175 127.99036381 56.37704468 143.06716919 C63.04043361 162.05019137 69.76838453 181.00789359 76.58203125 199.9375 C83.65378078 219.58613067 90.58906428 239.27948835 97.45703125 259 C97.69082111 259.67128811 97.92461098 260.34257622 98.16548538 261.03420639 C98.39882961 261.70421803 98.63217384 262.37422966 98.87258911 263.06454468 C100.26365955 267.05877963 101.65501435 271.05291534 103.046875 275.046875 C103.38490363 276.016864 103.38490363 276.016864 103.72976112 277.00644875 C107.94688091 289.10412994 112.21711276 301.18241449 116.51953125 313.25 C117.14682395 315.01041166 117.77410268 316.77082829 118.40136719 318.53125 C119.34625015 321.18269135 120.29119598 323.83411022 121.23629761 326.48547363 C125.16124453 337.49821159 129.07676155 348.51427294 132.97912598 359.53503418 C133.79108365 361.82625781 134.60429529 364.11703748 135.41882324 366.40734863 C136.54804019 369.58294216 137.67296648 372.76002452 138.796875 375.9375 C139.3034388 377.35757355 139.3034388 377.35757355 139.82023621 378.80633545 C140.12955582 379.68364319 140.43887543 380.56095093 140.75756836 381.46484375 C141.02685654 382.224021 141.29614471 382.98319824 141.57359314 383.76538086 C146.5093063 399.61368537 143.83122258 417.14873188 136.58203125 431.6875 C128.57675214 445.50565767 115.85330083 455.81269955 100.63745117 460.62231445 C92.30630804 462.81251544 83.80482271 462.37071944 75.2578125 462.29296875 C73.43507743 462.28736307 71.61233779 462.28309758 69.78959656 462.28010559 C65.02697948 462.26873325 60.26464342 462.2393329 55.50213623 462.20599365 C50.62841593 462.17512733 45.75464956 462.16156509 40.88085938 462.14648438 C31.34362755 462.11445483 21.8066029 462.06335222 12.26953125 462 C12.28000488 462.83660156 12.29047852 463.67320312 12.30126953 464.53515625 C12.33559143 467.6736548 12.36054618 470.81205687 12.37939453 473.95068359 C12.39426004 475.96328119 12.41968825 477.97579188 12.4453125 479.98828125 C12.49505096 489.88623519 12.35462479 498.4768496 5.26953125 506 C-0.1609564 510.50614932 -5.31517432 510.72650908 -12.27734375 510.51171875 C-17.45805306 509.7439892 -21.15535692 507.82192918 -24.73046875 504 C-28.33415862 498.65459678 -29.30171306 495.04196523 -29.12109375 488.66015625 C-29.11543396 487.89319931 -29.10977417 487.12624237 -29.10394287 486.33604431 C-29.08173369 483.91086686 -29.03157137 481.48722306 -28.98046875 479.0625 C-28.96038355 477.40822462 -28.94213633 475.75392584 -28.92578125 474.09960938 C-28.88192034 470.06582452 -28.81300512 466.03317134 -28.73046875 462 C-29.86671188 462.00888245 -31.00295502 462.01776489 -32.17362976 462.0269165 C-42.92702565 462.10830858 -53.68035832 462.16811171 -64.43399334 462.20724869 C-69.96141676 462.22804642 -75.48858978 462.25622022 -81.01586914 462.30175781 C-86.35865015 462.34549558 -91.70119161 462.36919574 -97.04413795 462.37950897 C-99.07371601 462.38685049 -101.10328224 462.40118558 -103.13275719 462.42292023 C-114.4025243 462.53871873 -124.16909927 462.35303109 -134.73046875 458 C-135.62912155 457.64238586 -136.52777435 457.28477173 -137.45365906 456.9163208 C-152.52153694 450.61157528 -162.57051026 436.19814187 -168.70703125 421.69140625 C-170.89457134 415.30256253 -171.06972961 408.87684735 -171.16796875 402.1875 C-171.19028564 401.29901367 -171.21260254 400.41052734 -171.2355957 399.49511719 C-171.19334446 386.85628596 -166.14113424 374.95531784 -161.59614182 363.33964157 C-160.44080385 360.38623088 -159.29971982 357.42736831 -158.15759468 354.4688282 C-157.56234174 352.92710758 -156.96643613 351.38563879 -156.3698864 349.84441948 C-153.36241885 342.06939386 -150.42673314 334.26809809 -147.50390625 326.4609375 C-146.98397614 325.07357742 -146.46401743 323.68622805 -145.94403076 322.29888916 C-144.60814615 318.73365869 -143.27352193 315.16795752 -141.93911743 311.60217285 C-140.49090864 307.73314339 -139.04129226 303.86464134 -137.59179688 299.99609375 C-135.47424453 294.34428536 -133.35704123 288.69234649 -131.24032211 283.04022598 C-127.47136607 272.97637856 -123.69947264 262.91363517 -119.92578125 252.8515625 C-119.64897396 252.11348736 -119.37216667 251.37541222 -119.08697128 250.61497116 C-117.69264615 246.89720864 -116.29826958 243.17946542 -114.90386963 239.46173096 C-112.37731975 232.72539457 -109.85122958 225.9888858 -107.32509995 219.25239182 C-105.91857459 215.50158765 -104.51202022 211.75079437 -103.10546875 208 C-102.54296861 206.50000005 -101.98046861 205.00000005 -101.41796875 203.5 C-100.29296875 200.5 -99.16796875 197.5 -98.04296875 194.5 C-97.7645281 193.7574915 -97.48608746 193.01498301 -97.19920921 192.24997425 C-96.63674128 190.75005998 -96.07427307 189.25014581 -95.51180458 187.75023174 C-94.10506166 183.99892099 -92.69832358 180.24760842 -91.29159546 176.49629211 C-88.76623667 169.76194212 -86.24084511 163.02760444 -83.71526909 156.29333591 C-82.31666553 152.56405597 -80.91809083 148.83476519 -79.51953125 145.10546875 C-79.24230854 144.36624868 -78.96508583 143.62702862 -78.67946243 142.86540794 C-75.51690267 134.43223793 -72.35499224 125.99882501 -69.19433594 117.56494141 C-68.90030695 116.78036025 -68.60627796 115.99577909 -68.303339 115.18742275 C-67.11587632 112.01877743 -65.92843007 108.85012596 -64.74108505 105.68143654 C-61.56352053 97.20145335 -58.38456634 88.721998 -55.20068359 80.24438477 C-54.37246902 78.03891442 -53.54427085 75.83343792 -52.71609116 73.62795448 C-52.17587776 72.18936113 -51.63562793 70.75078145 -51.09534073 69.31221581 C-47.94189453 60.91465104 -44.80190385 52.51238445 -41.68490601 44.10121155 C-40.10615907 39.84350784 -38.52008669 35.58855676 -36.93267822 31.33407593 C-36.226532 29.43527517 -35.52404606 27.53510828 -34.82562256 25.63345337 C-33.8891655 23.0840868 -32.94026507 20.53969475 -31.98828125 17.99609375 C-31.7280719 17.27680695 -31.46786255 16.55752014 -31.19976807 15.81643677 C-28.78778685 9.44330867 -25.35114768 2.84657653 -19.0078125 -0.33203125 C-12.83173718 -2.14353876 -6.05907002 -2.21905855 0 0 Z M-10.73046875 79 C-11.00877029 79.74213745 -11.28707184 80.4842749 -11.57380676 81.24890137 C-29.85519409 129.99926758 -48.13658142 178.74963379 -66.41796875 227.5 C-66.69641129 228.24251353 -66.97485382 228.98502707 -67.26173401 229.75004101 C-67.82418287 231.24990442 -68.386632 232.74976773 -68.94908142 234.24963093 C-70.35611617 238.00171988 -71.76314606 241.75381065 -73.17016602 245.50590515 C-75.69204011 252.23096253 -78.21394634 258.95600784 -80.73603821 265.68098354 C-82.13003944 269.3979903 -83.52401165 273.11500794 -84.91796875 276.83203125 C-85.19446259 277.56930765 -85.47095642 278.30658405 -85.75582886 279.06620216 C-89.57253597 289.24369763 -93.38790056 299.42169552 -97.20227051 309.60006714 C-99.33104086 315.28051859 -101.46018597 320.96082954 -103.58940887 326.64111137 C-105.30247126 331.21127454 -107.01510668 335.78159728 -108.72719574 340.35212517 C-109.52956973 342.4935496 -110.33258225 344.63473387 -111.13562012 346.77590942 C-112.16781503 349.52871457 -113.19656985 352.28276926 -114.22277832 355.03781128 C-116.47626154 361.07656556 -118.75365231 367.10124734 -121.1488266 373.08547115 C-122.19811028 375.70864677 -123.23359047 378.33718864 -124.26893616 380.96589088 C-124.98310601 382.76014563 -125.71908513 384.54567279 -126.45593262 386.33073425 C-129.48819216 394.03992085 -131.90233641 402.35708536 -128.79040527 410.44245911 C-126.1160303 415.47623926 -121.94941544 418.80105863 -116.73046875 421 C-112.04061574 421.97704011 -107.46897973 422.14380784 -102.69778442 422.13371277 C-101.90609324 422.13597833 -101.11440206 422.13824388 -100.29872024 422.14057809 C-97.65502377 422.14689078 -95.01137893 422.14609049 -92.36767578 422.14526367 C-90.4684645 422.14825685 -88.56925382 422.15165974 -86.67004395 422.15544128 C-81.51713061 422.16426888 -76.36423389 422.16661886 -71.21131372 422.16725707 C-67.99067544 422.16796822 -64.77004138 422.17010377 -61.54940414 422.17275429 C-50.31011436 422.18200325 -39.07083643 422.18608969 -27.83154297 422.18530273 C-17.36035711 422.1847019 -6.88922276 422.19525604 3.58195007 422.2110464 C12.57745318 422.22412736 21.57293946 422.2294864 30.568452 422.22884732 C35.93867754 422.22859252 41.30885728 422.23143403 46.67907333 422.24202538 C51.73026101 422.25171579 56.78135919 422.25177903 61.83255005 422.24450874 C63.68363704 422.24346411 65.53472964 422.24581856 67.38580704 422.2518692 C69.91826922 422.2596093 72.45042388 422.25493106 74.98287964 422.24723816 C76.07405242 422.2549535 76.07405242 422.2549535 77.18726909 422.26282471 C84.64253532 422.21299201 91.42099881 420.93876073 97.26953125 416 C102.05372127 410.77399824 102.69984573 406.13572694 102.5637207 399.21798706 C102.08916357 394.02705076 100.49149764 389.45730437 98.67578125 384.59765625 C98.29780396 383.5390892 97.91982666 382.48052216 97.53039551 381.38987732 C96.29431305 377.94081004 95.03204871 374.50196847 93.76953125 371.0625 C92.89397064 368.63348312 92.02029798 366.20378495 91.1484375 363.7734375 C89.37789404 358.84566115 87.59767367 353.92156456 85.80859375 349.00048828 C82.56767693 340.07960944 79.39362059 331.13539192 76.22348022 322.18917847 C75.25973768 319.47239196 74.29306833 316.75666435 73.32543945 314.04125977 C67.75216591 298.39864753 62.25067418 282.73111066 56.75039673 267.06271362 C50.88838061 250.37075835 44.94854092 233.70836592 38.95703125 217.0625 C31.1923971 195.48723095 23.60038956 173.85483226 16.0595789 152.20065689 C14.91624432 148.91754773 13.77268375 145.63451737 12.62890625 142.3515625 C12.40479506 141.70826241 12.18068386 141.06496231 11.94978142 140.40216827 C4.80723656 119.9051072 -2.4575932 99.451115 -9.73046875 79 C-10.06046875 79 -10.39046875 79 -10.73046875 79 Z " fill="#000000" transform="translate(170.73046875,1)"/>
<path d="M0 0 C12.28493399 7.03780964 16.43819765 27.3498037 21.1796875 39.7578125 C22.02462373 41.95509771 22.87025589 44.15211543 23.71655273 46.34887695 C25.43239093 50.80341345 27.14592395 55.25882554 28.85791016 59.71484375 C32.32926844 68.74156265 35.84604942 77.75042356 39.3671875 86.7578125 C40.01616851 88.41949341 40.66509405 90.08119597 41.31396484 91.74291992 C47.06469005 106.46757496 52.82768779 121.18743468 58.58959961 135.90771484 C65.51788154 153.60889272 72.42927223 171.31663834 79.33691406 189.02587891 C81.99083084 195.82957145 84.64590846 202.6328109 87.30102539 209.43603516 C88.6337764 212.85098395 89.96628168 216.26602847 91.29858398 219.68115234 C94.6654436 228.31100727 98.03523533 236.93970049 101.41015625 245.56640625 C107.59959277 261.39054864 113.78061948 277.21818676 119.87905884 293.07766724 C120.44800609 294.55594841 121.01826778 296.03372446 121.5899353 297.51095581 C122.37250252 299.53445647 123.14986508 301.55987884 123.92578125 303.5859375 C124.58211548 305.29185059 124.58211548 305.29185059 125.25170898 307.03222656 C130.36321009 321.78008646 128.25468674 338.99675797 122.01953125 352.9453125 C114.758217 367.50839401 102.14880035 378.36173677 86.94328308 383.93598938 C78.903365 386.37964705 71.1091311 386.45803773 62.79296875 386.36328125 C61.32895853 386.35767197 59.8649426 386.35340818 58.40092468 386.35041809 C54.58521421 386.33907393 50.76985736 386.30969956 46.95428467 386.27630615 C43.04574362 386.24537753 39.1371443 386.23186453 35.22851562 386.21679688 C27.58708 386.18481737 19.94593368 386.133751 12.3046875 386.0703125 C12.31516113 386.90691406 12.32563477 387.74351562 12.33642578 388.60546875 C12.37074768 391.7439673 12.39570243 394.88236937 12.41455078 398.02099609 C12.42941629 400.03359369 12.4548445 402.04610438 12.48046875 404.05859375 C12.53020721 413.95654769 12.38978104 422.5471621 5.3046875 430.0703125 C-0.12580015 434.57646182 -5.28001807 434.79682158 -12.2421875 434.58203125 C-18.87299359 433.5994118 -22.80869218 430.56948627 -26.77441406 425.31616211 C-29.89666642 419.70291989 -29.30569629 413.39219363 -29.296875 407.140625 C-29.30466393 405.78212976 -29.31333633 404.42363932 -29.32284546 403.06515503 C-29.33771465 400.22573013 -29.3372291 397.38680279 -29.32666016 394.54736328 C-29.31508289 390.9301778 -29.34892064 387.31504479 -29.3953495 383.69819832 C-29.42499124 380.89432109 -29.42654549 378.09092865 -29.42033005 375.28692245 C-29.42183933 373.31229356 -29.44945047 371.33773928 -29.47769165 369.36331177 C-29.40680056 362.43208839 -28.7169976 357.63732289 -24.66586304 351.93063354 C-19.32152129 346.88524585 -14.64113943 345.47609984 -7.40844727 345.55615234 C-6.21186996 345.54546471 -6.21186996 345.54546471 -4.99111938 345.53456116 C-2.37272932 345.51537414 0.24484482 345.52354265 2.86328125 345.53125 C4.69500396 345.52133474 6.52671671 345.50939034 8.3584137 345.49551392 C13.17054494 345.46320858 17.98244874 345.45276554 22.79467773 345.44866943 C30.49227604 345.4399026 38.18968791 345.40423896 45.88713264 345.3564949 C48.56589453 345.34397154 51.24441747 345.34466252 53.92320251 345.34677124 C55.57827941 345.34018594 57.23335471 345.3331787 58.88842773 345.32568359 C59.62477951 345.32980759 60.36113129 345.33393158 61.11979675 345.33818054 C68.62072595 345.28043871 75.40288617 344.03319089 81.3046875 339.0703125 C85.21020657 334.13702525 85.94774713 330.1224829 85.84521484 323.88964844 C84.62131131 315.2416146 80.73592047 307.22120428 77.4296875 299.1953125 C76.60865755 297.15818612 75.78985068 295.12016251 74.97314453 293.08129883 C73.27517338 288.8473911 71.56773452 284.61749078 69.85351562 280.39013672 C66.25652698 271.49867924 62.77745801 262.56151121 59.29675293 253.62405396 C57.42962839 248.8332605 55.55400703 244.04579441 53.6796875 239.2578125 C47.53356867 223.54750779 41.40280786 207.83121013 35.27246094 192.11474609 C32.2841459 184.45377611 29.2943982 176.79336519 26.30477905 169.13290405 C24.64715986 164.88549198 22.98958683 160.6380619 21.33203125 156.390625 C21.00348648 155.5487413 20.67494171 154.7068576 20.33644104 153.83946228 C18.2658389 148.53353049 16.19545896 143.22751206 14.12527466 137.92141724 C13.41640088 136.1045644 12.70747786 134.28773078 11.99850464 132.47091675 C10.28065139 128.06869068 8.56340827 123.66622907 6.84765625 119.26318359 C4.01613891 111.99916023 1.1792044 104.7377719 -1.69921875 97.4921875 C-2.12984619 96.40502441 -2.56047363 95.31786133 -3.00415039 94.19775391 C-3.76847425 92.27120034 -4.53683993 90.34624257 -5.31030273 88.42333984 C-5.63329346 87.60816895 -5.95628418 86.79299805 -6.2890625 85.953125 C-6.56427734 85.26621582 -6.83949219 84.57930664 -7.12304688 83.87158203 C-7.6953125 82.0703125 -7.6953125 82.0703125 -7.6953125 79.0703125 C-8.3553125 79.0703125 -9.0153125 79.0703125 -9.6953125 79.0703125 C-9.81342285 79.92423584 -9.9315332 80.77815918 -10.05322266 81.65795898 C-10.71689733 85.18502396 -11.73193216 88.30017616 -12.96875 91.66796875 C-13.20434128 92.31498245 -13.43993256 92.96199615 -13.68266296 93.62861633 C-14.47374107 95.79847101 -15.27196277 97.96562373 -16.0703125 100.1328125 C-17.24592634 103.34416382 -18.4180277 106.55679246 -19.58984375 109.76953125 C-19.90720993 110.63821838 -20.22457611 111.50690552 -20.55155945 112.4019165 C-23.29477691 119.92772226 -25.97366439 127.47560576 -28.64453125 135.02734375 C-29.92502694 138.6376819 -31.20613324 142.2478029 -32.48736572 145.85787964 C-33.33217334 148.24341099 -34.17427011 150.62990416 -35.01361084 153.0173645 C-36.20337238 156.39971186 -37.40338886 159.77826441 -38.60546875 163.15625 C-38.95921066 164.1704451 -39.31295258 165.1846402 -39.67741394 166.22956848 C-42.57999107 174.33690063 -45.719873 179.87583628 -52.6953125 185.0703125 C-58.30460425 186.94007642 -65.24787182 187.12503648 -70.9296875 185.38671875 C-75.93155425 182.71979422 -79.19545476 178.64149719 -82.0078125 173.8203125 C-84.34580739 164.46833295 -81.56927849 156.52586829 -78.33203125 147.73828125 C-77.86695592 146.44066445 -77.40329795 145.14253891 -76.94094849 143.84394836 C-75.69775319 140.36436228 -74.43544617 136.8920017 -73.16937637 133.42068481 C-71.84515573 129.77937827 -70.53903383 126.13159229 -69.23120117 122.484375 C-67.0964734 116.5375495 -64.95189713 110.59437086 -62.79980469 104.65380859 C-59.96512094 96.8274951 -57.15674017 88.99207422 -54.359375 81.15234375 C-50.855295 71.33453427 -47.33505989 61.52271473 -43.80110168 51.71562195 C-41.81740849 46.20587454 -39.84843525 40.6913025 -37.89891052 35.16937256 C-36.79642326 32.04969589 -35.68592883 28.93290895 -34.57382202 25.81665039 C-34.08226844 24.43279099 -33.59447743 23.04758764 -33.11099243 21.66088867 C-26.83898105 3.68005013 -26.83898105 3.68005013 -18.97265625 -0.26171875 C-12.80217453 -2.0715856 -6.08577757 -2.09915226 0 0 Z " fill="#000000" transform="translate(384.6953125,76.9296875)"/>
</svg>
