<?xml version="1.0" encoding="UTF-8"?>
<svg version="1.1" xmlns="http://www.w3.org/2000/svg" width="512" height="512">
<path d="M0 0 C0.99569504 -0.00744736 0.99569504 -0.00744736 2.01150513 -0.01504517 C4.20649251 -0.0296439 6.4014076 -0.03646534 8.59643555 -0.04199219 C10.12477113 -0.04774604 11.6531067 -0.05350374 13.18144226 -0.05926514 C16.38675268 -0.06976897 19.59203807 -0.0756155 22.79736328 -0.07910156 C26.89633927 -0.08458148 30.99498227 -0.10860109 35.09385395 -0.13707352 C38.25179497 -0.15573664 41.40965643 -0.16090747 44.56764793 -0.16243744 C46.07826747 -0.1654568 47.58888585 -0.17346113 49.09945107 -0.18662262 C51.21759676 -0.20375882 53.33493731 -0.20178487 55.453125 -0.1953125 C56.6565303 -0.19895813 57.85993561 -0.20260376 59.09980774 -0.20635986 C64.49449485 0.39062888 68.35634502 2.50944765 71.7331543 6.72363281 C72.22428711 7.32304687 72.71541992 7.92246094 73.22143555 8.54003906 C75.6717411 11.85234136 75.52649085 14.21249724 75.4831543 18.28613281 C75.47413086 19.38183594 75.46510742 20.47753906 75.45581055 21.60644531 C75.4384082 22.87101562 75.4384082 22.87101562 75.4206543 24.16113281 C76.11626465 24.14542236 76.811875 24.12971191 77.52856445 24.11352539 C80.70084401 24.05090418 83.87299315 24.01205604 87.0456543 23.97363281 C88.68727539 23.93592773 88.68727539 23.93592773 90.36206055 23.89746094 C97.0010753 23.83710626 101.93287266 23.97987831 107.06518555 28.66113281 C110.45296345 33.01199139 111.54979884 35.81912673 111.51831055 41.26660156 C111.51508789 42.24951172 111.51186523 43.23242188 111.50854492 44.24511719 C111.50016602 45.26927734 111.49178711 46.2934375 111.4831543 47.34863281 C111.47864258 48.38439453 111.47413086 49.42015625 111.46948242 50.48730469 C111.4576944 53.04530547 111.44123945 55.60319014 111.4206543 58.16113281 C112.46406982 58.14018555 113.50748535 58.11923828 114.58251953 58.09765625 C118.4905805 58.02471101 122.39858254 57.97913717 126.30712891 57.94140625 C127.9918025 57.92141395 129.6764078 57.89421059 131.36083984 57.859375 C151.00050729 57.46367207 151.00050729 57.46367207 159.2331543 64.59863281 C159.9550293 65.44425781 160.6769043 66.28988281 161.4206543 67.16113281 C162.1425293 67.96550781 162.8644043 68.76988281 163.6081543 69.59863281 C167.33737968 74.87098594 167.71285277 80.12595075 167.68135071 86.4172821 C167.68517626 87.23291888 167.6890018 88.04855565 167.69294327 88.88890868 C167.70323652 91.61342389 167.6992882 94.33772691 167.6953125 97.06225586 C167.69966085 99.0188415 167.70484441 100.97542543 167.71080017 102.93200684 C167.72418412 108.23955415 167.7247698 113.54703023 167.72223687 118.85459113 C167.72116734 123.28347021 167.72604976 127.71233486 167.73084229 132.14121085 C167.74193411 142.5844673 167.74237586 153.02768778 167.73632812 163.47094727 C167.73027951 174.25468238 167.74262263 185.0382873 167.76389819 195.82200021 C167.7814871 205.07645237 167.78752008 214.33086299 167.78426045 223.58533126 C167.78244405 229.11470539 167.78511977 234.64398653 167.79897499 240.17334557 C167.81150563 245.36819375 167.80965463 250.56283793 167.7965641 255.7576828 C167.79418882 257.66730886 167.79696682 259.57694907 167.80518723 261.48655891 C167.81557569 264.08659093 167.80761843 266.68592818 167.7948761 269.28593445 C167.80225038 270.04740192 167.80962467 270.80886938 167.81722242 271.59341162 C167.76478418 276.65397238 167.76478418 276.65397238 166.08476543 279.12989521 C163.45946458 280.75677511 161.42695718 280.53692067 158.4206543 280.16113281 C156.75639248 279.12235641 156.75639248 279.12235641 155.4206543 277.16113281 C155.12898496 274.49839469 155.02191003 272.06969711 155.04884338 269.40655518 C155.04501882 268.6085546 155.04119426 267.81055402 155.0372538 266.98837161 C155.02794275 264.30522268 155.03997652 261.62258625 155.05175781 258.93945312 C155.04929076 257.01935613 155.04545333 255.09926048 155.04034424 253.1791687 C155.03199402 249.03923314 155.03282427 244.89943507 155.04052925 240.7594986 C155.05209225 234.21270867 155.03996577 227.66609633 155.02391052 221.11932373 C154.98767943 204.85458453 154.98148559 188.58984911 154.98400879 172.32507324 C154.98571964 159.69272064 154.97860211 147.06051261 154.94403023 134.42820048 C154.92722835 127.92119063 154.92903836 121.41453307 154.94485295 114.90752459 C154.95065067 110.85584721 154.93990792 106.80433677 154.92460632 102.75268936 C154.9208804 100.8753861 154.92398726 98.99805478 154.93447685 97.12077713 C154.94785844 94.55464491 154.93662931 91.98972869 154.91944885 89.42364502 C154.92925563 88.6834554 154.93906241 87.94326579 154.94916636 87.18064618 C154.87295589 81.6632122 153.48123511 78.59549643 150.4206543 74.16113281 C145.99591624 71.10871275 141.8589554 70.69790718 136.6159668 70.64941406 C135.5299971 70.62248726 135.5299971 70.62248726 134.42208862 70.59501648 C132.13000153 70.54122143 129.83811889 70.50711879 127.5456543 70.47363281 C125.98312603 70.44043233 124.42062464 70.40594016 122.8581543 70.37011719 C119.04580261 70.28551358 115.23350829 70.21855722 111.4206543 70.16113281 C111.44421997 71.24998779 111.44421997 71.24998779 111.46826172 72.36083984 C111.53085785 75.6691907 111.56972341 78.97741663 111.6081543 82.28613281 C111.63329102 83.42824219 111.65842773 84.57035156 111.68432617 85.74707031 C111.77720782 96.39749947 111.77720782 96.39749947 108.4206543 101.16113281 C103.14695222 106.2055435 98.91694139 108.40691837 91.63420105 108.42182922 C90.47773575 108.42891403 89.32127045 108.43599884 88.12976074 108.44329834 C86.23997498 108.43958221 86.23997498 108.43958221 84.31201172 108.43579102 C82.96466286 108.44014082 81.61731648 108.44532487 80.26997375 108.45127869 C76.61692868 108.46465337 72.96398717 108.46524891 69.31092238 108.46271539 C66.25694872 108.4616443 63.20299589 108.46653275 60.14902669 108.47132081 C52.9403183 108.48241143 45.73166201 108.48285639 38.52294922 108.47680664 C31.09811539 108.47077104 23.67347127 108.48306828 16.2486698 108.50437671 C9.86462042 108.5220214 3.48063125 108.52798942 -2.90344161 108.52473897 C-6.71211161 108.52292999 -10.52064638 108.52552324 -14.3292942 108.53945351 C-17.91381299 108.55207349 -21.49803743 108.55004871 -25.08255196 108.53704262 C-27.01566467 108.53356745 -28.94878654 108.54482502 -30.88186646 108.55661011 C-44.85589339 108.47246888 -44.85589339 108.47246888 -50.09254169 103.8154192 C-54.31968462 99.06839827 -55.84162721 94.68445354 -55.7746582 88.42285156 C-55.76821289 87.35615234 -55.76176758 86.28945312 -55.75512695 85.19042969 C-55.73836914 84.08763672 -55.72161133 82.98484375 -55.7043457 81.84863281 C-55.69532227 80.72650391 -55.68629883 79.604375 -55.67700195 78.44824219 C-55.65349056 75.68565372 -55.62062725 72.92350349 -55.5793457 70.16113281 C-60.02731686 70.23028612 -64.47440031 70.31838378 -68.92163086 70.42358398 C-70.43259474 70.45671207 -71.94367877 70.48478136 -73.45483398 70.50756836 C-75.63487653 70.54133962 -77.81383009 70.59366178 -79.9934082 70.64941406 C-81.95721436 70.68869019 -81.95721436 70.68869019 -83.96069336 70.72875977 C-89.09655656 71.34241607 -92.3835191 72.8683473 -95.8918457 76.66113281 C-98.30653899 80.23845619 -98.70485492 82.8846426 -98.71077347 87.09664345 C-98.71461461 88.1211846 -98.71845576 89.14572576 -98.7224133 90.20131361 C-98.72154682 91.33037481 -98.72068034 92.45943601 -98.7197876 93.62271118 C-98.72275872 94.81948876 -98.72572984 96.01626633 -98.728791 97.2493099 C-98.73597911 100.57723486 -98.73865093 103.9051082 -98.73938847 107.23303723 C-98.74123797 110.82010811 -98.74878489 114.40716777 -98.75552368 117.99423218 C-98.7691131 125.84151445 -98.77513296 133.68879162 -98.77953434 141.5360837 C-98.78229631 146.43633285 -98.78653364 151.33658003 -98.79103851 156.23682785 C-98.80323308 169.80446308 -98.8135313 183.37209673 -98.8169136 196.93973732 C-98.81713317 197.80834561 -98.81735274 198.67695389 -98.81757896 199.57188364 C-98.81779723 200.44257492 -98.81801551 201.31326619 -98.8182404 202.21034205 C-98.81868387 203.97470069 -98.81913043 205.73905933 -98.81958008 207.50341797 C-98.81980151 208.37860141 -98.82002294 209.25378486 -98.82025108 210.15548901 C-98.8241974 224.3303345 -98.84164553 238.50512852 -98.8649396 252.67995413 C-98.88866291 267.23352432 -98.90111594 281.78706871 -98.90228152 296.34065855 C-98.90319785 304.51168645 -98.9089393 312.68264734 -98.92710114 320.85365677 C-98.9425155 327.81315535 -98.9476148 334.77256622 -98.93936303 341.73207863 C-98.93546094 345.2815476 -98.9363643 348.83084002 -98.95042038 352.38028717 C-98.96553676 356.23281812 -98.95727945 360.08510173 -98.94683838 363.93765259 C-98.95489478 365.05332945 -98.96295119 366.16900632 -98.97125173 367.31849158 C-98.93166475 373.56717982 -98.56214253 379.53483967 -95.5793457 385.16113281 C-93.14372569 386.77119313 -93.14372569 386.77119313 -90.5793457 387.16113281 C-89.9193457 387.49113281 -89.2593457 387.82113281 -88.5793457 388.16113281 C-86.49570008 388.26090515 -84.40879714 388.29459391 -82.32276917 388.29916382 C-81.67389219 388.3019851 -81.02501521 388.30480638 -80.35647529 388.30771315 C-78.17237132 388.31607625 -75.98831792 388.31739884 -73.80419922 388.31884766 C-72.24228777 388.32351455 -70.68037767 388.3286579 -69.11846924 388.33424377 C-65.750124 388.34553453 -62.38178766 388.35396391 -59.01342964 388.36036301 C-53.69022939 388.37102658 -48.36709307 388.39126618 -43.04393005 388.41348267 C-27.90529297 388.47546488 -12.76665961 388.52945558 2.37207031 388.5625 C10.72927192 388.5808222 19.08636658 388.60972644 27.44348961 388.65050471 C31.86850137 388.67161273 36.29337815 388.68703734 40.71844292 388.68931198 C44.8791137 388.69145323 49.03950328 388.70726852 53.2000885 388.73370171 C54.7291312 388.74091586 56.2582079 388.74298547 57.78726387 388.73959923 C59.87087644 388.73572114 61.95358349 388.75010319 64.03709412 388.76913452 C65.20425178 388.77244467 66.37140944 388.77575481 67.57393551 388.77916527 C70.4206543 389.16113281 70.4206543 389.16113281 72.29618931 390.49813271 C74.0557507 393.10039317 73.80188927 395.11125302 73.4206543 398.16113281 C72.30036354 399.82440281 72.30036354 399.82440281 70.4206543 401.16113281 C67.54663658 401.54144955 67.54663658 401.54144955 63.9703064 401.54881287 C62.9836834 401.55689117 62.9836834 401.55689117 61.97712862 401.56513268 C59.76849878 401.5794637 57.56046397 401.5722961 55.35180664 401.56518555 C53.76992306 401.57088675 52.1880436 401.57785003 50.60617065 401.58598328 C46.30416927 401.60396525 42.00237132 401.60273596 37.70034361 401.59704089 C34.10724179 401.59395389 30.51417932 401.60003659 26.92108309 401.60607964 C18.43897342 401.62014205 9.9569644 401.61855155 1.47485352 401.60717773 C-7.26553493 401.59571625 -16.00561582 401.609735 -24.74596369 401.63657421 C-32.25440491 401.65876449 -39.76274985 401.66536047 -47.27122152 401.6594978 C-51.75346631 401.65613236 -56.23551434 401.65851473 -60.71773148 401.67574883 C-64.93838541 401.69126714 -69.15858651 401.68720858 -73.37922287 401.66844368 C-74.92349921 401.66477014 -76.46780943 401.6678301 -78.01205444 401.67832947 C-87.47729599 401.73773914 -94.91300241 401.08173523 -102.84887695 395.59082031 C-109.82735417 388.559342 -112.01844726 380.8020182 -112.11431932 371.03883314 C-112.10539644 369.90360732 -112.09647355 368.76838149 -112.08728027 367.59875488 C-112.09352024 366.36811703 -112.0997602 365.13747918 -112.10618925 363.86954927 C-112.11931811 360.47925825 -112.1146829 357.08986247 -112.10224438 353.69962716 C-112.0931548 350.03356215 -112.10718288 346.36757261 -112.11816406 342.70152283 C-112.13591239 335.52990744 -112.13212582 328.35845989 -112.1205135 321.18683803 C-112.11146489 315.35619857 -112.11026134 309.52560602 -112.11460876 303.69496155 C-112.1152217 302.86381994 -112.11583463 302.03267834 -112.11646613 301.17635062 C-112.11774509 299.48768626 -112.11904194 297.79902192 -112.1203565 296.11035758 C-112.1317515 280.29095653 -112.11866558 264.47164833 -112.09715503 248.65226251 C-112.07928503 235.09055691 -112.08238944 221.52898828 -112.10083008 207.96728516 C-112.12225591 192.20291182 -112.13065296 176.43861978 -112.11838102 160.67423391 C-112.11710688 158.99192398 -112.1158494 157.30961404 -112.11460876 155.62730408 C-112.11399166 154.79966388 -112.11337456 153.97202369 -112.11273876 153.11930349 C-112.10929099 147.29843359 -112.11510182 141.47761543 -112.12452698 135.65675354 C-112.13576739 128.55907251 -112.13266413 121.46156833 -112.111404 114.36390746 C-112.10092091 110.74537403 -112.09672449 107.12713503 -112.11000061 103.50860405 C-112.12419567 99.58007459 -112.10719984 95.65202297 -112.08728027 91.72351074 C-112.1006646 90.020672 -112.1006646 90.020672 -112.11431932 88.28343248 C-112.01844726 78.52024742 -109.82735417 70.76292362 -102.84887695 63.73144531 C-93.29652721 57.12207423 -84.22971782 57.67924042 -73.0168457 57.91113281 C-71.32350744 57.93122794 -69.63014617 57.94947338 -67.93676758 57.96582031 C-63.81705199 58.00957944 -59.69845619 58.07843891 -55.5793457 58.16113281 C-55.60029297 57.566875 -55.62124023 56.97261719 -55.64282227 56.36035156 C-55.72676424 53.62745576 -55.77824852 50.89483224 -55.8293457 48.16113281 C-55.86286133 47.2265625 -55.89637695 46.29199219 -55.9309082 45.32910156 C-56.01857269 39.06109054 -55.21067314 34.36950296 -51.5793457 29.16113281 C-47.20718598 25.00224917 -43.96717218 24.03209669 -38.03637695 24.06347656 C-36.96323242 24.06669922 -35.89008789 24.06992187 -34.78442383 24.07324219 C-33.66487305 24.08162109 -32.54532227 24.09 -31.3918457 24.09863281 C-29.69511719 24.10540039 -29.69511719 24.10540039 -27.96411133 24.11230469 C-25.16913644 24.12409783 -22.3742675 24.14055631 -19.5793457 24.16113281 C-19.59783569 23.02768433 -19.59783569 23.02768433 -19.61669922 21.87133789 C-19.62628662 20.88029053 -19.63587402 19.88924316 -19.64575195 18.86816406 C-19.66424194 17.39440308 -19.66424194 17.39440308 -19.68310547 15.89086914 C-19.51162376 11.37948811 -18.08734433 8.67269644 -14.92700195 5.50488281 C-9.98415891 1.07408905 -6.71126049 0.0381547 0 0 Z " fill="#2D7C31" transform="translate(166.579345703125,8.8388671875)"/>
<path d="M0 0 C1.72283203 0.51046875 1.72283203 0.51046875 3.48046875 1.03125 C16.76222427 5.39462362 28.47386348 11.80842722 39 21 C39.99 21.77537109 39.99 21.77537109 41 22.56640625 C60.33589448 38.12088589 71.92127718 63.45993173 74.7890625 87.73291016 C77.30052493 114.72531766 70.74573242 142.27490382 53.6875 163.75 C52.1497058 165.52174921 50.58644513 167.27167766 49 169 C48.15566406 169.92554688 47.31132812 170.85109375 46.44140625 171.8046875 C28.58479944 190.51654543 3.64161902 202.3127382 -22.29296875 203.21875 C-52.32230097 203.88156634 -79.07507433 194.90878398 -101 174 C-101.87140625 173.17113281 -102.7428125 172.34226562 -103.640625 171.48828125 C-123.3840612 151.21711169 -132.27048179 123.92868304 -132 96 C-130.92914553 66.6765421 -117.42604355 41.37422309 -96.3125 21.4375 C-70.70119205 -0.96744637 -32.82618815 -9.74957444 0 0 Z M-99.83984375 43.28515625 C-116.07077671 63.68388755 -121.17925867 87.66881633 -118.7890625 113.25830078 C-115.67806222 137.71618363 -101.10212522 158.94663387 -81.99609375 173.90625 C-61.69624332 188.0923254 -37.07396664 193.92576587 -12.5625 189.875 C6.64761692 186.31021353 22.0002181 177.57018571 36 164 C36.61101562 163.46246094 37.22203125 162.92492187 37.8515625 162.37109375 C53.16762392 148.41879122 61.77908994 125.23750916 63 105 C63.07927734 103.95779297 63.07927734 103.95779297 63.16015625 102.89453125 C64.14398274 78.04221865 54.16709111 55.29162892 37.84375 37.00390625 C22.27937268 20.21494747 -0.18505889 9.88694246 -22.98828125 8.6796875 C-53.90328813 7.69203333 -79.46723033 19.96623895 -99.83984375 43.28515625 Z " fill="#2D7C31" transform="translate(382,300)"/>
<path d="M0 0 C5.44918781 3.22185819 9.59708107 7.24190157 11.76171875 13.28515625 C12.67953487 17.36713295 12.72421044 20.9602562 12.4296875 25.08984375 C12.37925293 25.90146973 12.32881836 26.7130957 12.27685547 27.54931641 C12.15011903 29.50630664 12.01592416 31.46282057 11.87646484 33.41894531 C11.68064529 36.19139617 11.49392272 38.96376041 11.31494141 41.73730469 C11.03300984 46.0934568 10.73511858 50.44830029 10.42782593 54.80273438 C10.30451676 56.5710239 10.18504212 58.33958518 10.06948853 60.10839844 C9.90266946 62.63193311 9.71896587 65.15372544 9.53125 67.67578125 C9.48426468 68.43450531 9.43727936 69.19322937 9.38887024 69.97494507 C8.79905769 77.43779159 6.28011467 82.23590618 0.6171875 87.08984375 C-3.7626831 89.64476827 -8.44577395 89.64034539 -13.3828125 89.08984375 C-18.55013058 87.30115672 -21.28840702 84.55954056 -24.3828125 80.08984375 C-26.27060475 74.66720927 -26.85575653 69.49402839 -27.234375 63.81640625 C-27.29813324 62.93439545 -27.36189148 62.05238464 -27.42758179 61.14364624 C-27.56048503 59.2797753 -27.68969846 57.415638 -27.81542969 55.55126953 C-28.0049312 52.75732471 -28.20854196 49.96468173 -28.4140625 47.171875 C-29.02339393 38.62966843 -29.51253771 30.10070795 -29.5703125 21.53515625 C-29.58295639 20.50365952 -29.58295639 20.50365952 -29.59585571 19.45132446 C-29.57645998 13.19536291 -28.2180641 9.08821942 -23.95703125 4.58203125 C-17.43650227 -1.31508798 -8.30805072 -3.17340298 0 0 Z " fill="#2D7C31" transform="translate(362.3828125,331.91015625)"/>
<path d="M0 0 C0.88249389 -0.00453111 1.76498777 -0.00906223 2.6742239 -0.01373065 C5.64297599 -0.02643092 8.61154595 -0.02475067 11.58032227 -0.02310181 C13.70395139 -0.02908345 15.82757833 -0.03588815 17.95120239 -0.04345703 C23.72791303 -0.06115903 29.50456446 -0.06581412 35.28129959 -0.0670886 C40.0977399 -0.06898479 44.91416633 -0.0763389 49.73060131 -0.08343279 C61.08904407 -0.09972953 72.4474551 -0.10460049 83.8059082 -0.10317993 C95.53879685 -0.10197746 107.27150184 -0.12309755 119.00434399 -0.15466726 C129.06552341 -0.18077836 139.12664265 -0.19154944 149.18785572 -0.19026911 C155.20244102 -0.18975805 161.21686312 -0.19552079 167.23141479 -0.21662521 C172.88507093 -0.23592124 178.5384067 -0.23619147 184.19207382 -0.22159195 C186.2710199 -0.21949213 188.34998558 -0.22427392 190.42889786 -0.23631287 C193.25913331 -0.25164566 196.08824742 -0.24253713 198.91845703 -0.22705078 C199.74811698 -0.23733791 200.57777693 -0.24762503 201.43257809 -0.25822389 C206.96665194 -0.19094339 206.96665194 -0.19094339 209.46958923 2.13817406 C210.69398024 4.77250398 210.90112823 6.39507738 210.45922852 9.26742554 C209.17014933 10.89599949 209.17014933 10.89599949 207.45922852 12.26742554 C204.52944832 12.56457855 201.81170277 12.67624012 198.88049316 12.65510559 C197.99391572 12.66049113 197.10733829 12.66587667 196.19389486 12.6714254 C193.21123631 12.68577869 190.22901697 12.67858316 187.24633789 12.67147827 C185.11285544 12.67717795 182.97937604 12.68414063 180.84590149 12.692276 C175.04230006 12.71026597 169.23884933 12.70902818 163.43522835 12.70333362 C158.59641533 12.70025051 153.75763162 12.70632433 148.91882277 12.71237236 C137.50762477 12.72643486 126.09650162 12.72484166 114.68530273 12.71347046 C102.89787345 12.7019842 91.11067155 12.71606965 79.32327223 12.74286693 C69.21537656 12.76498894 59.10755244 12.77166932 48.99963427 12.76579052 C42.95711353 12.76241176 36.91473863 12.764897 30.87223816 12.78204155 C25.19230304 12.79745314 19.51270613 12.79361962 13.83278465 12.7747364 C11.74416864 12.77103459 9.6555279 12.77420495 7.56693459 12.78462219 C4.72354849 12.79772505 1.88129985 12.7863803 -0.96203613 12.76863098 C-1.79558703 12.77823599 -2.62913793 12.78784099 -3.48794794 12.79773706 C-9.030063 12.72617061 -9.030063 12.72617061 -11.58475494 10.4314127 C-12.94662946 7.34874745 -12.50828583 5.44640123 -11.54077148 2.26742554 C-7.67451053 -0.31008176 -4.48330268 -0.01673662 0 0 Z " fill="#2E7C31" transform="translate(95.540771484375,279.7325744628906)"/>
<path d="M0 0 C0.87770477 -0.00453111 1.75540954 -0.00906223 2.65971142 -0.01373065 C5.61231028 -0.02643071 8.56472602 -0.02475068 11.51734924 -0.02310181 C13.62950377 -0.02908351 15.74165611 -0.03588822 17.85380554 -0.04345703 C23.59959263 -0.06115952 29.3453202 -0.06581417 35.09113193 -0.0670886 C39.88262473 -0.06898496 44.67410357 -0.07633935 49.46559101 -0.08343279 C60.76654232 -0.09973009 72.06746175 -0.10460048 83.36842346 -0.10317993 C95.03880856 -0.10197778 106.70900893 -0.12309132 118.37934726 -0.15466726 C128.38873812 -0.18078746 138.39806848 -0.19154904 148.40749317 -0.19026911 C154.39025266 -0.18975827 160.37284801 -0.19550868 166.35557365 -0.21662521 C171.98050623 -0.23593622 177.6051169 -0.23618105 183.23006058 -0.22159195 C185.29729874 -0.21949394 187.36455668 -0.22426335 189.43176079 -0.23631287 C192.24850984 -0.25167109 195.06413579 -0.24251994 197.88085938 -0.22705078 C198.70371553 -0.23733791 199.52657169 -0.24762503 200.37436289 -0.25822389 C203.98353489 -0.21425866 206.07921984 -0.04891097 209.01551914 2.13817406 C210.50392151 4.26742554 210.50392151 4.26742554 210.94142151 6.82992554 C210.42213767 9.72307835 209.76181912 10.45341664 207.50392151 12.26742554 C204.57414132 12.56457855 201.85639577 12.67624012 198.92518616 12.65510559 C198.03860872 12.66049113 197.15203128 12.66587667 196.23858786 12.6714254 C193.25592931 12.68577869 190.27370996 12.67858316 187.29103088 12.67147827 C185.15754843 12.67717795 183.02406904 12.68414063 180.89059448 12.692276 C175.08699305 12.71026597 169.28354232 12.70902818 163.47992134 12.70333362 C158.64110832 12.70025051 153.80232462 12.70632433 148.96351576 12.71237236 C137.55231777 12.72643486 126.14119461 12.72484166 114.72999573 12.71347046 C102.94256644 12.7019842 91.15536454 12.71606965 79.36796522 12.74286693 C69.26006955 12.76498894 59.15224543 12.77166932 49.04432726 12.76579052 C43.00180653 12.76241176 36.95943162 12.764897 30.91693115 12.78204155 C25.23699604 12.79745314 19.55739912 12.79361962 13.87747765 12.7747364 C11.78886164 12.77103459 9.70022089 12.77420495 7.61162758 12.78462219 C4.76824148 12.79772505 1.92599284 12.7863803 -0.91734314 12.76863098 C-1.75089404 12.77823599 -2.58444493 12.78784099 -3.44325495 12.79773706 C-8.98537 12.72617061 -8.98537 12.72617061 -11.54006195 10.4314127 C-12.90193647 7.34874745 -12.46359283 5.44640123 -11.49607849 2.26742554 C-7.63970463 -0.30349037 -4.47131067 -0.01678437 0 0 Z " fill="#2D7C32" transform="translate(95.49607849121094,141.73257446289063)"/>
<path d="M0 0 C1.23529449 -0.00708481 2.47058899 -0.01416962 3.74331665 -0.02146912 C5.11973608 -0.01917509 6.49615517 -0.01666536 7.87257385 -0.01396179 C9.31626144 -0.01830704 10.75994672 -0.02348956 12.20362854 -0.02944946 C16.13129809 -0.04287122 20.05887161 -0.04341461 23.98655963 -0.04088616 C27.26204777 -0.03981856 30.53751631 -0.04469442 33.81300026 -0.04949158 C41.53876488 -0.06059783 49.26448089 -0.06101796 56.99024963 -0.05497742 C64.96781535 -0.04893602 72.94520477 -0.06125022 80.9227404 -0.08254749 C87.76524528 -0.10014483 94.60769396 -0.10616779 101.45022064 -0.10290974 C105.53990567 -0.10109369 109.62946496 -0.10376493 113.71912956 -0.11762428 C117.56459345 -0.13016771 121.40978191 -0.12829189 125.25524139 -0.11521339 C126.66819666 -0.11284038 128.08117109 -0.11560815 129.49410439 -0.12383652 C131.4197099 -0.13424354 133.34539336 -0.12443454 135.27099609 -0.11352539 C136.88899439 -0.113777 136.88899439 -0.113777 138.53967953 -0.1140337 C141.19898987 0.26069641 141.19898987 0.26069641 143.04605198 1.59658527 C144.84481822 4.19286297 144.58206226 6.19611725 144.19898987 9.26069641 C143.0428381 10.92396641 143.0428381 10.92396641 141.19898987 12.26069641 C138.56088352 12.64101315 138.56088352 12.64101315 135.32241821 12.64837646 C134.09560837 12.6582811 132.86879852 12.66818573 131.60481262 12.6783905 C130.24305625 12.67415225 128.88130085 12.66959437 127.51954651 12.66474915 C126.08718329 12.67045062 124.65482462 12.67741401 123.22247314 12.68554688 C119.32987909 12.7035187 115.43750995 12.70230237 111.54488683 12.69660449 C108.29677272 12.69351828 105.04870218 12.69959877 101.80059427 12.70564324 C94.13851559 12.71970019 86.47654838 12.71811761 78.81446838 12.70674133 C70.90671113 12.69525982 62.99929301 12.7093335 55.09158045 12.73613781 C48.3050774 12.75828135 41.51868091 12.76493522 34.7321443 12.7590614 C30.67761997 12.75568725 26.62331304 12.75813696 22.56881905 12.77531242 C18.75608875 12.79075815 14.94386145 12.78685299 11.1311512 12.76800728 C9.73151751 12.76431468 8.33184676 12.76744946 6.93224716 12.77789307 C5.02238442 12.79105653 3.11239219 12.77717613 1.20254517 12.76190186 C-0.4010607 12.76158793 -0.4010607 12.76158793 -2.03706264 12.76126766 C-5.4981411 12.13444086 -6.71524507 11.05207903 -8.80101013 8.26069641 C-8.52801543 1.43582875 -6.53215527 0.01243606 0 0 Z " fill="#2E7C31" transform="translate(91.80101013183594,325.7393035888672)"/>
<path d="M0 0 C1.06838608 -0.00990463 2.13677216 -0.01980927 3.23753357 -0.03001404 C4.99560081 -0.02326157 4.99560081 -0.02326157 6.78918457 -0.01637268 C8.02350723 -0.02323593 9.2578299 -0.03009918 10.52955627 -0.03717041 C13.91602107 -0.05235241 17.30193625 -0.0539281 20.68839455 -0.04822803 C23.51409957 -0.04514093 26.33975457 -0.05122317 29.16545248 -0.05726677 C35.83027388 -0.07132003 42.49496713 -0.06974377 49.15979004 -0.05836487 C56.03943884 -0.04687888 62.91869804 -0.0609652 69.7982955 -0.08776134 C75.70241594 -0.10989837 81.6064139 -0.11656039 87.51057291 -0.11068493 C91.0380222 -0.10730977 94.56522164 -0.10976719 98.09263611 -0.12693596 C102.02419388 -0.14523631 105.95527013 -0.13123854 109.88684082 -0.11402893 C111.05888565 -0.1236969 112.23093048 -0.13336487 113.43849182 -0.14332581 C114.5068779 -0.13349167 115.57526398 -0.12365753 116.67602539 -0.11352539 C117.60590523 -0.11331611 118.53578506 -0.11310682 119.49384308 -0.1128912 C121.8380127 0.38768005 121.8380127 0.38768005 123.6371994 2.25884914 C125.12655851 4.89922107 125.29766124 6.39996454 124.8380127 9.38768005 C123.17727261 11.63996377 122.2843464 12.31579898 119.49384308 12.76520348 C118.09902332 12.76690009 118.09902332 12.76690009 116.67602539 12.76863098 C115.07344627 12.78132019 115.07344627 12.78132019 113.43849182 12.79426575 C112.26644699 12.78819305 111.09440216 12.78212036 109.88684082 12.77586365 C108.65251816 12.78112061 107.4181955 12.78637756 106.14646912 12.79179382 C102.75999659 12.80274695 99.37407281 12.80016342 95.98763084 12.79065657 C92.44560375 12.78306709 88.90360027 12.79010359 85.36157227 12.79481506 C79.41308374 12.80027471 73.46470692 12.79307559 67.51623535 12.77879333 C60.63664247 12.76246633 53.75731631 12.76775469 46.87772989 12.78427255 C40.97361418 12.79788153 35.06957881 12.79980999 29.16545248 12.79195654 C25.6380536 12.78727675 22.11078013 12.78666346 18.58338928 12.79656601 C14.65188204 12.80683187 10.72067414 12.79260779 6.78918457 12.77586365 C5.03111732 12.78497269 5.03111732 12.78497269 3.23753357 12.79426575 C2.16914749 12.78580627 1.10076141 12.7773468 0 12.76863098 C-0.92987984 12.7674999 -1.85975967 12.76636883 -2.81781769 12.76520348 C-5.1619873 12.38768005 -5.1619873 12.38768005 -6.96117401 11.05137062 C-8.82652304 8.46698586 -8.54809314 6.47652676 -8.1619873 3.38768005 C-5.82209967 0.1466559 -3.87455242 0.0101247 0 0 Z " fill="#2E7D32" transform="translate(181.1619873046875,233.61231994628906)"/>
<path d="M0 0 C1.05859726 -0.00571014 2.11719452 -0.01142029 3.20787048 -0.01730347 C4.37415985 -0.01842133 5.54044922 -0.01953918 6.74208069 -0.02069092 C7.96650375 -0.02565582 9.19092682 -0.03062073 10.45245361 -0.03573608 C13.81608165 -0.04785703 17.17964742 -0.05530585 20.5432899 -0.05974674 C22.64356363 -0.06267612 24.74383188 -0.06678062 26.84410286 -0.07125092 C33.41204838 -0.08492615 39.97998142 -0.09459314 46.54794019 -0.09845281 C54.13614648 -0.10293627 61.72417289 -0.12049724 69.31232446 -0.1494534 C75.17393806 -0.17104686 81.03550095 -0.1811558 86.89715391 -0.18249393 C90.40000128 -0.18354348 93.90267956 -0.18948308 97.40548515 -0.20731354 C101.31071193 -0.22680582 105.21571256 -0.22251459 109.12098694 -0.21600342 C110.86738464 -0.22982559 110.86738464 -0.22982559 112.64906311 -0.243927 C114.24118874 -0.23557327 114.24118874 -0.23557327 115.86547852 -0.22705078 C116.78928283 -0.22851734 117.71308714 -0.2299839 118.66488552 -0.2314949 C120.99623108 0.14044189 120.99623108 0.14044189 122.79737186 1.44075394 C124.77350428 4.24242442 124.29659391 6.83645073 123.99623108 10.14044189 C121.43365965 12.70301332 120.47637851 12.39695053 116.91653442 12.41459656 C115.84110886 12.42457169 114.76568329 12.43454681 113.65766907 12.44482422 C112.47267822 12.44548889 111.28768738 12.44615356 110.06678772 12.44683838 C108.20089241 12.45932365 108.20089241 12.45932365 106.29730225 12.47206116 C102.87990413 12.49207085 99.46275002 12.50280939 96.04531407 12.5078876 C93.91153029 12.51152687 91.7777701 12.51776463 89.64399529 12.52488899 C82.20353537 12.54939433 74.7631453 12.56243792 67.32264709 12.565979 C60.38105785 12.56961621 53.43991025 12.59952145 46.49845606 12.64138359 C40.54341327 12.6760412 34.58851716 12.69152664 28.63337415 12.69222504 C25.07452116 12.69301936 21.51611788 12.70182786 17.95736885 12.7302227 C13.98976038 12.7611712 10.0227903 12.75236539 6.05506897 12.73980713 C4.87210236 12.75464142 3.68913574 12.76947571 2.47032166 12.78475952 C0.85295357 12.77011406 0.85295357 12.77011406 -0.79708862 12.75517273 C-1.73564162 12.75718406 -2.67419462 12.75919538 -3.64118862 12.76126766 C-6.00376892 12.14044189 -6.00376892 12.14044189 -7.87215519 9.80514622 C-9.00376892 7.14044189 -9.00376892 7.14044189 -8.31626892 3.89044189 C-6.29246003 -0.34991959 -4.38252908 0.01411757 0 0 Z " fill="#2D7C31" transform="translate(92.00376892089844,187.85955810546875)"/>
<path d="M0 0 C5.04810497 3.72847587 8.04816717 7.64221047 9.5 13.8125 C10.13596303 20.27812419 9.1361798 25.33802931 5.5 30.8125 C0.60202588 35.6101058 -3.90313074 37.89102425 -10.75 38.125 C-16.63574093 38.02835401 -21.03890218 36.16659357 -25.296875 32.09375 C-30.35671388 26.40745488 -30.97823228 21.74715035 -30.90234375 14.18359375 C-30.18107052 8.14030449 -27.39534661 4.18025012 -22.7421875 0.375 C-15.96708766 -3.70706852 -6.82801638 -4.02547234 0 0 Z " fill="#2D7C31" transform="translate(364.5,431.1875)"/>
<path d="M0 0 C1.30823227 -0.01268417 2.61646454 -0.02536835 3.96434021 -0.03843689 C5.39427854 -0.03638538 6.82421579 -0.0333973 8.25415039 -0.02954102 C9.72001895 -0.03410174 11.18588536 -0.03940699 12.65174866 -0.04542542 C15.72430099 -0.05436212 18.79659349 -0.05192751 21.86914062 -0.04199219 C25.80484005 -0.0305054 29.73964187 -0.05070546 33.67522335 -0.07990932 C36.70274037 -0.09826523 39.73004208 -0.09798011 42.75760078 -0.0922718 C44.20846376 -0.09211849 45.65934123 -0.09817118 47.11015129 -0.11056328 C49.13979037 -0.12545575 51.16957697 -0.11217523 53.19921875 -0.09765625 C54.3537706 -0.09749008 55.50832245 -0.09732391 56.69786072 -0.09715271 C60.29553222 0.51070349 61.47696062 1.53551917 63.66430664 4.40405273 C64.14764607 7.23504082 64.18496711 8.65031574 62.53967285 11.03213501 C59.78195465 13.04953431 57.61264323 12.78534406 54.22094727 12.79223633 C53.57183884 12.79749329 52.92273041 12.80275024 52.25395203 12.8081665 C50.1092418 12.82136569 47.96527436 12.81262946 45.82055664 12.80249023 C44.32987322 12.80451101 42.83919077 12.80742248 41.34851074 12.81118774 C38.22467637 12.81561096 35.10109938 12.80918038 31.97729492 12.79516602 C27.97212487 12.77807382 23.96755789 12.78791506 19.96240997 12.80588341 C16.8843328 12.8167215 13.80639873 12.81327486 10.72831726 12.80550003 C9.25152007 12.80349808 7.7747099 12.80595715 6.29792786 12.81293869 C4.23415695 12.82055396 2.17136403 12.80894967 0.10766602 12.79223633 C-1.06687134 12.78984955 -2.24140869 12.78746277 -3.45153809 12.78500366 C-6.33569336 12.40405273 -6.33569336 12.40405273 -8.21496582 11.06729126 C-9.96915781 8.46394692 -9.71671391 6.45221716 -9.33569336 3.40405273 C-6.86137785 -0.24391257 -4.18505334 0.0195984 0 0 Z " fill="#2D7C31" transform="translate(242.335693359375,187.595947265625)"/>
<path d="M0 0 C1.96730324 -0.01441132 1.96730324 -0.01441132 3.97434998 -0.02911377 C5.4126671 -0.03396098 6.85098624 -0.03824 8.28930664 -0.04199219 C9.75899763 -0.047743 11.22868858 -0.05350075 12.69837952 -0.05926514 C15.78101959 -0.0697747 18.86363359 -0.07561786 21.94628906 -0.07910156 C25.89874287 -0.08459066 29.85085293 -0.10862735 33.80319881 -0.13707352 C36.8392081 -0.15568382 39.87513424 -0.16090459 42.91119576 -0.16243744 C44.36847376 -0.16546743 45.82575019 -0.17350766 47.28297234 -0.18662262 C49.32008954 -0.20364996 51.35734819 -0.19996287 53.39453125 -0.1953125 C54.55431992 -0.19895813 55.71410858 -0.20260376 56.90904236 -0.20635986 C59.76196289 0.16113281 59.76196289 0.16113281 61.63648987 1.49591064 C63.39628296 4.09965717 63.14339773 6.10965406 62.76196289 9.16113281 C61.64123535 10.8223877 61.64123535 10.8223877 59.76196289 12.16113281 C56.87780762 12.55554199 56.87780762 12.55554199 53.31860352 12.58105469 C52.66949509 12.58952423 52.02038666 12.59799377 51.35160828 12.60671997 C49.20694365 12.63011084 47.06299539 12.63111185 44.91821289 12.62988281 C43.42752799 12.63698243 41.93684584 12.64468114 40.44616699 12.6529541 C37.32235109 12.66640309 34.19878794 12.66796559 31.07495117 12.66210938 C27.06950812 12.65620809 23.06527506 12.68681844 19.06006622 12.72722626 C15.98196873 12.75305907 12.90416447 12.75598488 9.82597351 12.75233459 C8.34914606 12.75402957 6.87230561 12.76370843 5.39558411 12.78147888 C3.33133594 12.80358836 1.26956107 12.79401368 -0.79467773 12.77636719 C-1.96921509 12.77842163 -3.14375244 12.78047607 -4.35388184 12.78259277 C-7.23803711 12.16113281 -7.23803711 12.16113281 -9.18371582 9.82580566 C-10.23803711 7.16113281 -10.23803711 7.16113281 -9.55053711 3.91113281 C-7.34747141 -0.70481436 -4.76997645 0.02810147 0 0 Z " fill="#2E7C32" transform="translate(93.238037109375,233.8388671875)"/>
</svg>
